<svg version="1.1" xmlns="http://www.w3.org/2000/svg" xmlns:xlink="http://www.w3.org/1999/xlink">

    <defs>

        <symbol id="kapriol" viewBox="0 0 488.3 749.7">
            <path d="M422.9,385.2c-17.2-7.7-128.9-138.6-174.7-161.9c-1.2-8.4-2-16.2-1.9-20.6c0.6-14,4.3-29.8,15.7-41.4c11.4-11.6,29.7-34.7,30.7-56.4c1-21.7-14.5-52.2-14.5-52.2s1.2,91.3-48.3,92.6c-21.3,0.6-58.7-28.1-62.8-62.4C161.2,33.1,115.7,0,115.7,0l0.5,2.6c3.8,7,29.4,56,13.8,76l0,0.2l-0.9,0.9l-0.1,0.2h0c-18.4,17.8-61.7,7.1-61.7,7.1s11.3,17.2,32.7,19.3c18.7,1.8,95.3,18.2,111.3,95.1c2.4,11.4-2.8,38.1-3,39l-1.5-0.4c-9.3-4.9-77-64-102-77.7c-29.2-15.9-47.9,57.8-11.4,126c17.4,32.4,48.4,50.7,48.4,50.7s-24.6,57.9-54.6,102.1C59.4,481.9,0,535.7,0,535.7s83.6-6.4,103.2-37.1c40.6-63.8,63.2-160.2,63.2-160.2s-34.8-17-51.3-52.3c-16.5-35.2-24.5-111.4-3.3-93.3c21.2,18.1,64.7,76.4,103.6,87.3c24.2,6.7,13.1-16,34.9,0c19.6,14.4,151.2,114.7,161.3,119.9c30.1,15.4,51.3,16.8,33.5,48.1c-13,22.8-73.4,31.1-73.4,31.1l-136.6,11c0,0,27,191.1,15.2,223.7c-11.9,32.6-23.6,35.6-23.6,35.6s64.8,4.2,72.9-31.9c11.9-52.7-23.5-191.9-23.5-191.9s80.2-19,112.8-25.1c82.5-15.4,88.5-31.2,95.9-54.5C493.5,418.9,490,415.4,422.9,385.2"></path>
        </symbol>

        <symbol id="trazi" viewBox="0 0 512 512">
            <path d="M508.5 468.9L387.1 347.5c-2.3-2.3-5.3-3.5-8.5-3.5h-13.2c31.5-36.5 50.6-84 50.6-136C416 93.1 322.9 0 208 0S0 93.1 0 208s93.1 208 208 208c52 0 99.5-19.1 136-50.6v13.2c0 3.2 1.3 6.2 3.5 8.5l121.4 121.4c4.7 4.7 12.3 4.7 17 0l22.6-22.6c4.7-4.7 4.7-12.3 0-17zM208 368c-88.4 0-160-71.6-160-160S119.6 48 208 48s160 71.6 160 160-71.6 160-160 160z"></path>
        </symbol>

        <symbol id="kosarica" viewBox="0 0 576 512">
            <path d="M551.991 64H144.28l-8.726-44.608C133.35 8.128 123.478 0 112 0H12C5.373 0 0 5.373 0 12v24c0 6.627 5.373 12 12 12h80.24l69.594 355.701C150.796 415.201 144 430.802 144 448c0 35.346 28.654 64 64 64s64-28.654 64-64a63.681 63.681 0 0 0-8.583-32h145.167a63.681 63.681 0 0 0-8.583 32c0 35.346 28.654 64 64 64 35.346 0 64-28.654 64-64 0-18.136-7.556-34.496-19.676-46.142l1.035-4.757c3.254-14.96-8.142-29.101-23.452-29.101H203.76l-9.39-48h312.405c11.29 0 21.054-7.869 23.452-18.902l45.216-208C578.695 78.139 567.299 64 551.991 64zM208 472c-13.234 0-24-10.766-24-24s10.766-24 24-24 24 10.766 24 24-10.766 24-24 24zm256 0c-13.234 0-24-10.766-24-24s10.766-24 24-24 24 10.766 24 24-10.766 24-24 24zm23.438-200H184.98l-31.31-160h368.548l-34.78 160z"></path>
        </symbol>

        <symbol id="uredi" viewBox="0 0 512 512">
            <path d="M493.255 56.236l-37.49-37.49c-24.993-24.993-65.515-24.994-90.51 0L12.838 371.162.151 485.346c-1.698 15.286 11.22 28.203 26.504 26.504l114.184-12.687 352.417-352.417c24.992-24.994 24.992-65.517-.001-90.51zM164.686 347.313c6.249 6.249 16.379 6.248 22.627 0L368 166.627l30.059 30.059L174 420.745V386h-48v-48H91.255l224.059-224.059L345.373 144 164.686 324.687c-6.249 6.248-6.249 16.378 0 22.626zm-38.539 121.285l-58.995 6.555-30.305-30.305 6.555-58.995L63.255 366H98v48h48v34.745l-19.853 19.853zm344.48-344.48l-49.941 49.941-82.745-82.745 49.941-49.941c12.505-12.505 32.748-12.507 45.255 0l37.49 37.49c12.506 12.506 12.507 32.747 0 45.255z"></path>
        </symbol>

        <symbol id="izbrisi" viewBox="0 0 448 512">
            <path d="M296 432h16a8 8 0 0 0 8-8V152a8 8 0 0 0-8-8h-16a8 8 0 0 0-8 8v272a8 8 0 0 0 8 8zm-160 0h16a8 8 0 0 0 8-8V152a8 8 0 0 0-8-8h-16a8 8 0 0 0-8 8v272a8 8 0 0 0 8 8zM440 64H336l-33.6-44.8A48 48 0 0 0 264 0h-80a48 48 0 0 0-38.4 19.2L112 64H8a8 8 0 0 0-8 8v16a8 8 0 0 0 8 8h24v368a48 48 0 0 0 48 48h288a48 48 0 0 0 48-48V96h24a8 8 0 0 0 8-8V72a8 8 0 0 0-8-8zM171.2 38.4A16.1 16.1 0 0 1 184 32h80a16.1 16.1 0 0 1 12.8 6.4L296 64H152zM384 464a16 16 0 0 1-16 16H80a16 16 0 0 1-16-16V96h320zm-168-32h16a8 8 0 0 0 8-8V152a8 8 0 0 0-8-8h-16a8 8 0 0 0-8 8v272a8 8 0 0 0 8 8z"></path>
        </symbol>

        <symbol id="korisnik" viewBox="0 0 448 512">
            <path d="M313.6 288c-28.7 0-42.5 16-89.6 16-47.1 0-60.8-16-89.6-16C60.2 288 0 348.2 0 422.4V464c0 26.5 21.5 48 48 48h352c26.5 0 48-21.5 48-48v-41.6c0-74.2-60.2-134.4-134.4-134.4zM416 464c0 8.8-7.2 16-16 16H48c-8.8 0-16-7.2-16-16v-41.6C32 365.9 77.9 320 134.4 320c19.6 0 39.1 16 89.6 16 50.4 0 70-16 89.6-16 56.5 0 102.4 45.9 102.4 102.4V464zM224 256c70.7 0 128-57.3 128-128S294.7 0 224 0 96 57.3 96 128s57.3 128 128 128zm0-224c52.9 0 96 43.1 96 96s-43.1 96-96 96-96-43.1-96-96 43.1-96 96-96z"></path>
        </symbol>

        <symbol id="korisnik2" viewBox="0 0 448 512">
            <path d="M224 256c70.7 0 128-57.3 128-128S294.7 0 224 0 96 57.3 96 128s57.3 128 128 128zm89.6 32h-16.7c-22.2 10.2-46.9 16-72.9 16s-50.6-5.8-72.9-16h-16.7C60.2 288 0 348.2 0 422.4V464c0 26.5 21.5 48 48 48h352c26.5 0 48-21.5 48-48v-41.6c0-74.2-60.2-134.4-134.4-134.4z"></path>
        </symbol>

        <symbol id="lozinka" viewBox="0 0 512 512">
            <path d="M336 32c79.529 0 144 64.471 144 144s-64.471 144-144 144c-18.968 0-37.076-3.675-53.661-10.339L240 352h-48v64h-64v64H32v-80l170.339-170.339C195.675 213.076 192 194.968 192 176c0-79.529 64.471-144 144-144m0-32c-97.184 0-176 78.769-176 176 0 15.307 1.945 30.352 5.798 44.947L7.029 379.716A24.003 24.003 0 0 0 0 396.686V488c0 13.255 10.745 24 24 24h112c13.255 0 24-10.745 24-24v-40h40c13.255 0 24-10.745 24-24v-40h19.314c6.365 0 12.47-2.529 16.971-7.029l30.769-30.769C305.648 350.055 320.693 352 336 352c97.184 0 176-78.769 176-176C512 78.816 433.231 0 336 0zm48 108c11.028 0 20 8.972 20 20s-8.972 20-20 20-20-8.972-20-20 8.972-20 20-20m0-28c-26.51 0-48 21.49-48 48s21.49 48 48 48 48-21.49 48-48-21.49-48-48-48z"></path>
        </symbol>

        <symbol id="email" viewBox="0 0 512 512">
            <path d="M256 8C118.941 8 8 118.919 8 256c0 137.058 110.919 248 248 248 52.925 0 104.68-17.078 147.092-48.319 5.501-4.052 6.423-11.924 2.095-17.211l-5.074-6.198c-4.018-4.909-11.193-5.883-16.307-2.129C346.93 457.208 301.974 472 256 472c-119.373 0-216-96.607-216-216 0-119.375 96.607-216 216-216 118.445 0 216 80.024 216 200 0 72.873-52.819 108.241-116.065 108.241-19.734 0-23.695-10.816-19.503-33.868l32.07-164.071c1.449-7.411-4.226-14.302-11.777-14.302h-12.421a12 12 0 0 0-11.781 9.718c-2.294 11.846-2.86 13.464-3.861 25.647-11.729-27.078-38.639-43.023-73.375-43.023-68.044 0-133.176 62.95-133.176 157.027 0 61.587 33.915 98.354 90.723 98.354 39.729 0 70.601-24.278 86.633-46.982-1.211 27.786 17.455 42.213 45.975 42.213C453.089 378.954 504 321.729 504 240 504 103.814 393.863 8 256 8zm-37.92 342.627c-36.681 0-58.58-25.108-58.58-67.166 0-74.69 50.765-121.545 97.217-121.545 38.857 0 58.102 27.79 58.102 65.735 0 58.133-38.369 122.976-96.739 122.976z"></path>
        </symbol>

        <symbol id="telefon" viewBox="0 0 512 512">
            <path d="M493.09 351.3L384.7 304.8a31.36 31.36 0 0 0-36.5 8.9l-44.1 53.9A350 350 0 0 1 144.5 208l53.9-44.1a31.35 31.35 0 0 0 8.9-36.49l-46.5-108.5A31.33 31.33 0 0 0 125 .81L24.2 24.11A31.05 31.05 0 0 0 0 54.51C0 307.8 205.3 512 457.49 512A31.23 31.23 0 0 0 488 487.7L511.19 387a31.21 31.21 0 0 0-18.1-35.7zM456.89 480C222.4 479.7 32.3 289.7 32.1 55.21l99.6-23 46 107.39-72.8 59.5C153.3 302.3 209.4 358.6 313 407.2l59.5-72.8 107.39 46z"></path>
        </symbol>

        <symbol id="vrijeme" viewBox="0 0 512 512">
            <path d="M256 8C119 8 8 119 8 256s111 248 248 248 248-111 248-248S393 8 256 8zm216 248c0 118.7-96.1 216-216 216-118.7 0-216-96.1-216-216 0-118.7 96.1-216 216-216 118.7 0 216 96.1 216 216zm-148.9 88.3l-81.2-59c-3.1-2.3-4.9-5.9-4.9-9.7V116c0-6.6 5.4-12 12-12h14c6.6 0 12 5.4 12 12v146.3l70.5 51.3c5.4 3.9 6.5 11.4 2.6 16.8l-8.2 11.3c-3.9 5.3-11.4 6.5-16.8 2.6z"></path>
        </symbol>

        <symbol id="cijena" viewBox="0 0 640 512">
            <path d="M425.23 406.49A32.06 32.06 0 0 0 448 416h64a32 32 0 0 0 32-32v-64a32 32 0 0 0-9.5-22.76L246.68 12.07a41.15 41.15 0 0 0-58.24 0l-48.38 48.4A41.48 41.48 0 0 0 128 89.89 40.68 40.68 0 0 0 140.34 119zM289.46 100L512 320v64h-64L228.1 161.4l61.36-61.4zM162.69 83.09l48.39-48.4A9.21 9.21 0 0 1 217.6 32a9 9 0 0 1 6.45 2.69l44.53 44.54-61.36 61.38-44.53-44.54a9.18 9.18 0 0 1 0-12.98zM224 408a8 8 0 0 0 8 8h157.61l-31.71-32H232a8 8 0 0 0-8 8zm8-88h62.49l-31.71-32H232a8 8 0 0 0-8 8v16a8 8 0 0 0 8 8zm376-192H409.15l32.3 32H608v320H32V160h104l-18-18.12A73.25 73.25 0 0 1 107.13 128H32a32 32 0 0 0-32 32v320a32 32 0 0 0 32 32h576a32 32 0 0 0 32-32V160a32 32 0 0 0-32-32zM136 424h16a8 8 0 0 0 8-8v-16.12c23.62-.63 42.67-20.54 42.67-45.07 0-20-13-37.81-31.58-43.39l-45-13.5c-5.16-1.54-8.77-6.78-8.77-12.73 0-7.27 5.29-13.19 11.79-13.19h28.11a24 24 0 0 1 12.82 3.72 8.21 8.21 0 0 0 10.13-.73l11.75-11.21a8 8 0 0 0-.57-12.14A57.15 57.15 0 0 0 160 240.29V224a8 8 0 0 0-8-8h-16a8 8 0 0 0-8 8v16.12c-23.62.63-42.67 20.55-42.67 45.07 0 20 13 37.81 31.58 43.39l45 13.5c5.16 1.54 8.77 6.78 8.77 12.73 0 7.27-5.29 13.19-11.79 13.19h-28.12a24.08 24.08 0 0 1-12.77-3.72 8.21 8.21 0 0 0-10.13.73l-11.8 11.21a8 8 0 0 0 .57 12.14A57.23 57.23 0 0 0 128 399.71V416a8 8 0 0 0 8 8z"></path>
        </symbol>

        <symbol id="valuta" viewBox="0 0 640 512">
            <path d="M608 64H32C14.3 64 0 78.3 0 96v320c0 17.7 14.3 32 32 32h576c17.7 0 32-14.3 32-32V96c0-17.7-14.3-32-32-32zM32 96h64c0 35.3-28.7 64-64 64zm0 320v-64c35.3 0 64 28.7 64 64zm576 0h-64c0-35.3 28.7-64 64-64zm0-96c-52.9 0-96 43.1-96 96H128c0-52.9-43.1-96-96-96V192c52.9 0 96-43.1 96-96h384c0 52.9 43.1 96 96 96zm0-160c-35.3 0-64-28.7-64-64h64zm-288-32c-61.9 0-112 57.3-112 128s50.1 128 112 128c61.8 0 112-57.3 112-128s-50.1-128-112-128zm0 224c-44.1 0-80-43.1-80-96s35.9-96 80-96 80 43.1 80 96-35.9 96-80 96zm32-63.9h-16v-88c0-4.4-3.6-8-8-8h-13.7c-4.7 0-9.4 1.4-13.3 4l-15.3 10.2c-3.7 2.5-4.6 7.4-2.2 11.1l8.9 13.3c2.5 3.7 7.4 4.6 11.1 2.2l.5-.3V288h-16c-4.4 0-8 3.6-8 8v16c0 4.4 3.6 8 8 8h64c4.4 0 8-3.6 8-8v-16c0-4.4-3.6-8-8-7.9z"></path>
        </symbol>

        <symbol id="zaliha" viewBox="0 0 512 512">
            <path d="M512 256.01c0-9.98-5.81-18.94-14.77-22.81l-99.74-43.27 99.7-43.26c9-3.89 14.81-12.84 14.81-22.81s-5.81-18.92-14.77-22.79L271.94 3.33c-10.1-4.44-21.71-4.45-31.87-.02L14.81 101.06C5.81 104.95 0 113.9 0 123.87s5.81 18.92 14.77 22.79l99.73 43.28-99.7 43.26C5.81 237.08 0 246.03 0 256.01c0 9.97 5.81 18.92 14.77 22.79l99.72 43.26-99.69 43.25C5.81 369.21 0 378.16 0 388.14c0 9.97 5.81 18.92 14.77 22.79l225.32 97.76a40.066 40.066 0 0 0 15.9 3.31c5.42 0 10.84-1.1 15.9-3.31l225.29-97.74c9-3.89 14.81-12.84 14.81-22.81 0-9.98-5.81-18.94-14.77-22.81l-99.72-43.26 99.69-43.25c9-3.89 14.81-12.84 14.81-22.81zM45.23 123.87l208.03-90.26.03-.02c1.74-.71 3.65-.76 5.45.02l208.03 90.26-208.03 90.27c-1.81.77-3.74.77-5.48 0L45.23 123.87zm421.54 264.27L258.74 478.4c-1.81.77-3.74.77-5.48 0L45.23 388.13l110.76-48.06 84.11 36.49a40.066 40.066 0 0 0 15.9 3.31c5.42 0 10.84-1.1 15.9-3.31l84.11-36.49 110.76 48.07zm-208.03-41.87c-1.81.77-3.74.77-5.48 0L45.23 256 156 207.94l84.1 36.5a40.066 40.066 0 0 0 15.9 3.31c5.42 0 10.84-1.1 15.9-3.31l84.1-36.49 110.77 48.07-208.03 90.25z"></path>
        </symbol>

        <symbol id="tenisice" viewBox="0 0 640 512">
            <path d="M337.46 272c-34.91 0-76.16 14.06-104.73 34.29-24.79 17.55-44.52 34.29-104.73 34.29H64c-35.35 0-64 30.7-64 68.57S28.65 480 64 480h64l57.53 14.82C217.42 504.3 250.17 512 293.3 512 403.84 512 512 456.84 512 374.86 512 306.29 427.82 272 337.46 272zM112 448H64c-17.05 0-32-18.16-32-38.86 0-20.17 14.36-36.57 32-36.57h48V448zm81.51 15.84L144 451.08v-79.11c55.33-2.95 80.75-20.66 103.08-36.62C338.33 270.38 480 316.73 480 374.86c0 62.15-121.49 137.92-286.49 88.98zM421.29 0c-43.42 0-76.17 7.78-107.77 17.17L256 32h-64c-35.35 0-64 32.98-64 70.86 0 37.87 28.65 68.57 64 68.57h64c60.2 0 79.94 16.73 104.73 34.29C389.3 225.94 430.54 240 465.46 240 555.82 240 640 205.71 640 137.14 640 55.84 533.12 0 421.29 0zM240 139.43h-48c-17.64 0-32-16.4-32-36.57C160 82.16 174.95 64 192 64h48v75.43zM465.46 208c-27.58 0-62.24-11.41-86.24-28.4-23.71-16.89-48.76-36.45-107.22-39.56V60.92l50.65-13.07C352.05 39.1 381.72 32 421.29 32 473.38 32 608 58.02 608 137.14c0 46.52-71.71 70.86-142.54 70.86z"></path>
        </symbol>

        <symbol id="cipele" viewBox="0 0 612 512">
            <path d="M415 247.8L352 232V128c17.7 0 32-14.3 32-32V32c0-17.7-14.3-32-32-32H32C14.3 0 0 14.3 0 32v434.7c0 8.5 3.4 16.6 9.4 22.6l13.3 13.3c6 6 14.1 9.4 22.6 9.4h37.5c8.5 0 16.6-3.4 22.6-9.4L128 480l22.6 22.6c6 6 14.1 9.4 22.6 9.4h37.5c8.5 0 16.6-3.4 22.6-9.4L256 480l22.6 22.6c6 6 14.1 9.4 22.6 9.4h37.5c8.5 0 16.6-3.4 22.6-9.4L384 480l22.6 22.6c6 6 14.1 9.4 22.6 9.4h37.5c8.5 0 16.6-3.4 22.6-9.4l13.3-13.3c6-6 9.4-14.1 9.4-22.6v-94.8c0-58.7-40-109.9-97-124.1zM32 32h320v64H32V32zm448 434.7L466.7 480h-37.5l-22.6-22.6c-6-6-14.1-9.4-22.6-9.4s-16.6 3.4-22.6 9.4L338.7 480h-37.5l-22.6-22.6c-6-6-14.1-9.4-22.6-9.4s-16.6 3.4-22.6 9.4L210.7 480h-37.5l-22.6-22.6c-6-6-14.1-9.4-22.6-9.4s-16.6 3.4-22.6 9.4L82.7 480H45.3L32 466.7V416h448v50.7zm0-82.7H32V128h288v32h-88c-4.4 0-8 3.6-8 8v16c0 4.4 3.6 8 8 8h88v32h-88c-4.4 0-8 3.6-8 8v16c0 4.4 3.6 8 8 8h88l87.3 22.8c42.8 10.7 72.7 49 72.7 93.1V384z"></path>
        </symbol>

        <symbol id="majica" viewBox="0 0 608 512">
            <path d="M606.4 111.6c-2.6-7.8-8-14.1-15.2-17.8L403.8 0l-7.9 11.1c-15.7 22-51.8 36.2-91.9 36.2s-76.2-14.2-91.9-36.2L204.2 0 16.8 93.8c-7.3 3.7-12.7 10-15.2 17.8-2.6 7.8-2 16.1 1.7 23.4l51.5 104c3.6 7.4 9.8 12.9 17.5 15.4 7.7 2.7 16 2 23.2-1.6l48.6-24v237.8c0 25 20.1 45.3 44.8 45.3h230.4c24.7 0 44.8-20.3 44.8-45.3V228.9l48.5 24c7.2 3.7 15.5 4.3 23.3 1.6 7.7-2.6 13.9-8.1 17.5-15.4L604.9 135c3.5-7.3 4.1-15.6 1.5-23.4zm-79.7 112.3L432 177.1v289.7c0 7.1-5.7 12.9-12.8 12.9H188.8c-7.1 0-12.8-5.8-12.8-12.9V177.1l-92.6 47.6-52.3-101.9 164.1-82.2c24 24.3 64.2 39 108.9 39S389 64.9 413 40.6L575.5 122l-48.8 101.9z"></path>
        </symbol>

        <symbol id="carapi" viewBox="0 0 512 512">
            <path d="M448 0h-95.83c-11.87 0-22.84 3.43-32.37 9.04C310.43 3.49 299.71 0 288 0h-95.83c-35.32 0-63.96 28.46-64 63.78C128.1 137.27 128 248 128 248l-79.77 59.39c-45.97 34.49-62.82 98.49-34.06 148.25C35.46 492.47 73.8 512 112.09 512c23.38 0 46.97-7.3 67.09-22.41l13.76-10.32c21.47 21.46 50.13 32.72 79.14 32.72 23.38 0 46.97-7.3 67.09-22.41l121.61-91.2a128.006 128.006 0 0 0 51.21-102.4V64C512 28.65 483.35 0 448 0zm-95.83 32H448c17.64 0 32 14.36 32 32v32H320.14l.03-32.18c.02-17.55 14.38-31.82 32-31.82zm-160 0H288c2.91 0 5.68.47 8.31 1.24-5.02 9.1-8.13 19.4-8.14 30.54L288.14 96h-128l.03-32.18c.02-17.55 14.38-31.82 32-31.82zm-18.32 421.6L159.97 464c-13.94 10.46-30.5 16-47.88 16-28.98 0-55.61-15.09-70.22-40.38-19.78-34.21-8.55-81.05 25.56-106.64L159.98 264l.13-136h128c-.06 60.63-.11 120-.11 120l-79.16 59.39c-45.37 34.03-62.18 96.75-34.99 146.21zM480 295.99c0 30.06-14.36 58.77-38.4 76.8L319.97 464c-13.94 10.46-30.5 16-47.88 16-28.98 0-55-15.09-69.62-40.38-19.78-34.21-8.55-81.05 25.56-106.64L319.98 264l.13-136H480v167.99z"></path>
        </symbol>

        <symbol id="rukavice" viewBox="0 0 448 512">
            <path d="M420.9 197.6c-13.5-11.4-30.6-17.6-48.2-17.6-21.9 0-42.5 9.5-56.9 26.1l-20.4-89C279.7 48.1 219.8 0 149.8 0c-11.3 0-22.7 1.3-33.8 3.9C35.6 22.6-14.7 103.9 3.8 185l44.6 195c.4 1.9 1.1 3.7 1.6 5.6-9.4 3.1-18 11.8-18 22.4v80c0 13.3 10.7 24 23.8 24h303.1c13.1 0 25.2-10.7 25.2-24v-80c0-11.4-9.4-20.4-19.9-22.9l66.4-80.4c26.6-32.2 22.2-80.2-9.7-107.1zM352 480H64v-64h288v64zm54.2-195.8L323.7 384H82.9c-1.2-3.7-2.7-7.4-3.6-11.3l-44.6-195C20.1 113.8 59.7 49.8 123.1 35c8.8-2 17.7-3.1 26.6-3.1 55.2 0 102.4 37.9 114.8 92.3L292 244.6l7.2 31.4 20.5-24.8 19.4-23.5c8.3-10.1 20.5-15.8 33.5-15.8 10.2 0 20 3.6 27.9 10.2 18.6 15.6 21.1 43.4 5.7 62.1z"></path>
        </symbol>

        <symbol id="akcija" viewBox="0 0 384 512">
            <path d="M192 95.95c-52.93 0-96 43.07-96 96s43.07 96 96 96 96-43.07 96-96-43.06-96-96-96zm0 160c-35.29 0-64-28.71-64-64s28.71-64 64-64 64 28.71 64 64-28.71 64-64 64zm175.63 16.38c14.06-14.31 19.59-35.33 14.47-54.86-6.39-24.2-6.39-20.45 0-44.69 5.13-19.52-.41-40.53-14.47-54.86-17.58-17.72-15.57-14.69-21.91-38.59-5.15-19.63-20.37-35.08-39.72-40.34-23.3-6.32-20.62-4.58-37.75-22.22-14.22-14.42-35.12-20.08-54.53-14.82-23.5 6.51-20.1 6.41-43.47 0-19.25-5.31-40.28.4-54.5 14.85-17.3 17.67-14.21 15.77-37.72 22.19-19.37 5.26-34.59 20.71-39.75 40.32-6.36 24.04-4.38 20.87-21.91 38.62C2.31 132.25-3.22 153.27 1.91 172.8c6.39 24.17 6.39 20.42 0 44.69-5.13 19.52.41 40.53 14.47 54.86 17.58 17.72 15.57 14.69 21.91 38.59 2.01 7.64 5.91 14.36 10.62 20.38L1.2 448.7c-4.31 10.57 3.51 22.04 14.79 22.04.55 0-2.91.12 53.32-2.03L105.56 507c3.22 3.4 7.42 5 11.58 5 6.17 0 12.23-3.53 14.86-9.96l52.45-129.03a23.346 23.346 0 0 1 15.11-.01L252 502.04c2.62 6.43 8.69 9.96 14.86 9.96 4.16 0 8.36-1.6 11.58-5l36.25-38.28c56.23 2.15 52.77 2.03 53.32 2.03 11.28 0 19.1-11.47 14.79-22.04l-47.7-117.37c4.71-6.02 8.61-12.74 10.62-20.37 6.36-24.06 4.38-20.89 21.91-38.64zM111.72 466.95c-22.59-23.86-16.56-17.49-29.13-30.77-18.3.7-9.45.36-42.41 1.63l35.55-87.48c.79.26 1.47.75 2.28.97 21.87 5.86 20.46 4.6 31.59 15.91 9.94 10.14 22.79 15.57 35.96 16.5l-33.84 83.24zm232.11-29.15c-32.91-1.26-24.13-.92-42.41-1.62-12.56 13.27-6.54 6.91-29.13 30.77l-33.9-83.4c13.21-.91 26.06-6.21 36.02-16.35 11.41-11.61 9.83-10.19 31.59-15.91.81-.22 1.49-.71 2.28-.96l35.55 87.47zm-29.05-134.99c-2.25 8.58-8.84 15.33-17.22 17.61-23.62 6.25-28.39 6.45-45.97 24.37-8 8.11-20.19 9.61-29.75 3.48-18.13-11.44-41.56-11.45-59.69.02-9.5 6.03-21.75 4.62-29.75-3.52-17.38-17.68-22.12-17.95-45.97-24.36-8.38-2.28-14.97-9.03-17.22-17.62-8.06-30.63-7.53-30.19-30.03-52.87-6.19-6.31-8.63-15.62-6.34-24.31 8.15-30.47 8.2-30.48 0-60.95-2.28-8.69.16-18 6.34-24.3 22.42-22.7 21.94-22.06 30.03-52.91 2.25-8.58 8.84-15.33 17.22-17.59 30.79-8.41 29.68-7.8 52.13-30.62 5.2-5.31 13.82-8.96 23.28-6.41 30.46 8.38 29.85 8.4 60.28 0 8.19-2.27 17.19.19 23.31 6.37 22.29 22.87 21.87 22.44 52.16 30.66 8.34 2.27 14.94 9.02 17.19 17.61 8.06 30.63 7.53 30.19 30.03 52.87 6.19 6.31 8.63 15.62 6.34 24.31-8.19 30.52-8.16 30.54 0 60.95 2.28 8.69-.16 18-6.34 24.3-22.41 22.71-21.94 22.06-30.03 52.91z"></path>
        </symbol>

        <symbol id="potpis" viewBox="0 0 640 512">
            <path d="M630.1 206.8c-32.7 8.4-77.1 30.8-108.7 49.6-14.7 8.8-29.9 17.9-41.5 23.4-31.3 15.2-58.3 28.2-84.1 28.2-12.9 0-23-4.3-29.9-12.7-11.3-13.8-11.3-35.3-7.9-63.3 3.3-26.9.6-47.8-7.6-57.3-4.4-5-10-6.9-18.7-6.3C307 170 257 210.8 169.6 300.9l-54.4 56 70-187.6c11.8-31.6 3.6-66.1-20.9-87.8C145 64.3 112 54.3 77.3 78L3.5 127.8c-3.5 2.3-4.5 7-2.5 10.6l9.2 16.2c2.3 4.1 7.6 5.3 11.5 2.7L97.5 106c6.6-4.5 14-6.8 21.4-6.8 9.1 0 17.6 3.4 24.8 9.8 13.2 11.7 17.6 30.2 11.3 47.1L55.2 423.7c-1.9 5.2-1 12.6 2.2 17.7 2.4 3.7 6.6 6.1 11.3 6.6 4.9.3 9.7-1.4 13-4.9C125 396.8 239.5 278.4 298 228.4l20.4-17.4c3.4-2.9 8.5-.3 8.2 4.1l-2.1 27.9c-2 27.3-2.4 55.9 16.8 78.6 12.4 14.5 30.7 21.9 54.6 21.9 32.7 0 64.1-15.1 97.3-31.1 10.2-4.9 24.9-14.1 39.2-23 30.9-19.3 72.3-40.5 101.8-47.7 3.5-.9 5.9-4 5.9-7.6v-17.3c-.1-7.4-5-11.2-10-10z"></path>
        </symbol>

        <symbol id="grad" viewBox="0 0 640 512">
            <path d="M132 368H92c-6.62 0-12 5.37-12 12v40c0 6.63 5.38 12 12 12h40c6.62 0 12-5.37 12-12v-40c0-6.63-5.38-12-12-12zm0-96H92c-6.62 0-12 5.37-12 12v40c0 6.63 5.38 12 12 12h40c6.62 0 12-5.37 12-12v-40c0-6.63-5.38-12-12-12zm0-96H92c-6.62 0-12 5.37-12 12v40c0 6.63 5.38 12 12 12h40c6.62 0 12-5.37 12-12v-40c0-6.63-5.38-12-12-12zm96 192h-40c-6.62 0-12 5.37-12 12v40c0 6.63 5.38 12 12 12h40c6.62 0 12-5.37 12-12v-40c0-6.63-5.38-12-12-12zm0-96h-40c-6.62 0-12 5.37-12 12v40c0 6.63 5.38 12 12 12h40c6.62 0 12-5.37 12-12v-40c0-6.63-5.38-12-12-12zm0-96h-40c-6.62 0-12 5.37-12 12v40c0 6.63 5.38 12 12 12h40c6.62 0 12-5.37 12-12v-40c0-6.63-5.38-12-12-12zm192 96h-40c-6.62 0-12 5.37-12 12v40c0 6.63 5.38 12 12 12h40c6.62 0 12-5.37 12-12v-40c0-6.63-5.38-12-12-12zm0-96h-40c-6.62 0-12 5.37-12 12v40c0 6.63 5.38 12 12 12h40c6.62 0 12-5.37 12-12v-40c0-6.63-5.38-12-12-12zm0-96h-40c-6.62 0-12 5.37-12 12v40c0 6.63 5.38 12 12 12h40c6.62 0 12-5.37 12-12V92c0-6.63-5.38-12-12-12zm128 288h-40c-6.62 0-12 5.37-12 12v40c0 6.63 5.38 12 12 12h40c6.62 0 12-5.37 12-12v-40c0-6.63-5.38-12-12-12zm0-96h-40c-6.62 0-12 5.37-12 12v40c0 6.63 5.38 12 12 12h40c6.62 0 12-5.37 12-12v-40c0-6.63-5.38-12-12-12zm68-80H512V24c0-13.26-10.75-24-24-24H312c-13.25 0-24 10.74-24 24v72h-64V8c0-4.42-3.58-8-8-8h-16c-4.42 0-8 3.58-8 8v88h-64V8c0-4.42-3.58-8-8-8h-16c-4.42 0-8 3.58-8 8v88H24c-13.25 0-24 10.74-24 24v384c0 4.42 3.58 8 8 8h16c4.42 0 8-3.58 8-8V128h288V32h160v192h128v280c0 4.42 3.58 8 8 8h16c4.42 0 8-3.58 8-8V216c0-13.26-10.75-24-24-24z"></path>
        </symbol>

        <symbol id="telefon" viewBox="0 0 512 512">
            <path d="M493.09 351.3L384.7 304.8a31.36 31.36 0 0 0-36.5 8.9l-44.1 53.9A350 350 0 0 1 144.5 208l53.9-44.1a31.35 31.35 0 0 0 8.9-36.49l-46.5-108.5A31.33 31.33 0 0 0 125 .81L24.2 24.11A31.05 31.05 0 0 0 0 54.51C0 307.8 205.3 512 457.49 512A31.23 31.23 0 0 0 488 487.7L511.19 387a31.21 31.21 0 0 0-18.1-35.7zM456.89 480C222.4 479.7 32.3 289.7 32.1 55.21l99.6-23 46 107.39-72.8 59.5C153.3 302.3 209.4 358.6 313 407.2l59.5-72.8 107.39 46z"></path>
        </symbol>

        <symbol id="grad" viewBox="0 0 640 512">
            <path d="M132 368H92c-6.62 0-12 5.37-12 12v40c0 6.63 5.38 12 12 12h40c6.62 0 12-5.37 12-12v-40c0-6.63-5.38-12-12-12zm0-96H92c-6.62 0-12 5.37-12 12v40c0 6.63 5.38 12 12 12h40c6.62 0 12-5.37 12-12v-40c0-6.63-5.38-12-12-12zm0-96H92c-6.62 0-12 5.37-12 12v40c0 6.63 5.38 12 12 12h40c6.62 0 12-5.37 12-12v-40c0-6.63-5.38-12-12-12zm96 192h-40c-6.62 0-12 5.37-12 12v40c0 6.63 5.38 12 12 12h40c6.62 0 12-5.37 12-12v-40c0-6.63-5.38-12-12-12zm0-96h-40c-6.62 0-12 5.37-12 12v40c0 6.63 5.38 12 12 12h40c6.62 0 12-5.37 12-12v-40c0-6.63-5.38-12-12-12zm0-96h-40c-6.62 0-12 5.37-12 12v40c0 6.63 5.38 12 12 12h40c6.62 0 12-5.37 12-12v-40c0-6.63-5.38-12-12-12zm192 96h-40c-6.62 0-12 5.37-12 12v40c0 6.63 5.38 12 12 12h40c6.62 0 12-5.37 12-12v-40c0-6.63-5.38-12-12-12zm0-96h-40c-6.62 0-12 5.37-12 12v40c0 6.63 5.38 12 12 12h40c6.62 0 12-5.37 12-12v-40c0-6.63-5.38-12-12-12zm0-96h-40c-6.62 0-12 5.37-12 12v40c0 6.63 5.38 12 12 12h40c6.62 0 12-5.37 12-12V92c0-6.63-5.38-12-12-12zm128 288h-40c-6.62 0-12 5.37-12 12v40c0 6.63 5.38 12 12 12h40c6.62 0 12-5.37 12-12v-40c0-6.63-5.38-12-12-12zm0-96h-40c-6.62 0-12 5.37-12 12v40c0 6.63 5.38 12 12 12h40c6.62 0 12-5.37 12-12v-40c0-6.63-5.38-12-12-12zm68-80H512V24c0-13.26-10.75-24-24-24H312c-13.25 0-24 10.74-24 24v72h-64V8c0-4.42-3.58-8-8-8h-16c-4.42 0-8 3.58-8 8v88h-64V8c0-4.42-3.58-8-8-8h-16c-4.42 0-8 3.58-8 8v88H24c-13.25 0-24 10.74-24 24v384c0 4.42 3.58 8 8 8h16c4.42 0 8-3.58 8-8V128h288V32h160v192h128v280c0 4.42 3.58 8 8 8h16c4.42 0 8-3.58 8-8V216c0-13.26-10.75-24-24-24z"></path>
        </symbol>

        <symbol id="adresa" viewBox="0 0 384 512">
            <path d="M192 96c-52.935 0-96 43.065-96 96s43.065 96 96 96 96-43.065 96-96-43.065-96-96-96zm0 160c-35.29 0-64-28.71-64-64s28.71-64 64-64 64 28.71 64 64-28.71 64-64 64zm0-256C85.961 0 0 85.961 0 192c0 77.413 26.97 99.031 172.268 309.67 9.534 13.772 29.929 13.774 39.465 0C357.03 291.031 384 269.413 384 192 384 85.961 298.039 0 192 0zm0 473.931C52.705 272.488 32 256.494 32 192c0-42.738 16.643-82.917 46.863-113.137S149.262 32 192 32s82.917 16.643 113.137 46.863S352 149.262 352 192c0 64.49-20.692 80.47-160 281.931z"></path>
        </symbol>

        <symbol id="zip" viewBox="0 0 496 512">
            <path d="M184 119.2c0-7-5.7-12.7-12.7-12.7h-.1c-3.4 0-6.6 1.3-8.9 3.7l-28.5 28.5c-2.4 2.4-3.7 5.6-3.7 8.9v.1c0 7 5.7 12.7 12.7 12.7h18c3.4 0 6.6-1.3 8.9-3.7l10.5-10.5c2.4-2.4 3.7-5.6 3.7-8.9v-18.1zM248 8C111 8 0 119 0 256s111 248 248 248 248-111 248-248S385 8 248 8zm48 458.4V432c0-26.5-21.5-48-48-48h-20.2c-3.9 0-13.1-3.1-16.2-5.4l-22.2-16.7c-3.4-2.5-5.4-6.6-5.4-10.8v-23.9c0-4.7 2.5-9.1 6.5-11.6l42.9-25.7c2.1-1.3 4.5-1.9 6.9-1.9h31.2c3.2 0 6.3 1.2 8.8 3.2l52.2 44.8h30.2l17.3 17.3c9.5 9.5 22.1 14.7 35.5 14.7h16.8c-29.9 49.1-78.7 85.3-136.3 98.4zM448.5 336h-32.9c-4.8 0-9.5-1.9-12.9-5.3l-17.3-17.3c-6-6-14.1-9.4-22.6-9.4h-18.3l-43.2-37.1c-8.2-7.1-18.7-10.9-29.6-10.9h-31.2c-8.2 0-16.3 2.2-23.4 6.5l-42.9 25.7c-13.7 8.2-22.1 23-22.1 39v23.9c0 14.3 6.7 27.8 18.2 36.4l22.2 16.7c8.6 6.5 24.6 11.8 35.4 11.8h20.2c8.8 0 16 7.2 16 16v39.2c-5.3.4-10.6.8-16 .8-119.1 0-216-96.9-216-216 0-118.9 96.5-215.6 215.3-216L232 51.1c-10.2 7.7-16 19.2-16 31.4v23.2c0 6.4 3.1 17 5.9 22.3-.8 2.1-21.1 15-24.6 18.5-8.6 8.6-13.3 20-13.3 32.1V195c0 25 20.4 45.4 45.4 45.4h25.3c11 0 21.2-3.9 29.2-10.6 3.9 1.4 8.2 2.1 12.6 2.1h13.4c25.6 0 32.2-20.2 36.1-21.5 5.1 9.1 13.5 16.2 23.5 19.5-4.3 14.2-.9 30.3 10.1 41.6l18.2 19.1c8.7 8.9 20.6 13.9 32.7 13.9h27.7c-2.4 10.8-5.7 21.3-9.7 31.5zm-17.8-63.6c-3.6 0-7.1-1.5-9.6-4L402.6 249a9.93 9.93 0 0 1 .1-14c12.6-12.6 10.5-8.6 10.5-17.8 0-2.5-1-4.9-2.8-6.7l-7.9-7.9c-1.8-1.8-4.2-2.8-6.7-2.8h-13.4c-8.5 0-12.6-10.3-6.7-16.2l7.9-7.3c1.8-1.8 4.2-2.8 6.7-2.8h8.3c5.2 0 9.5-4.2 9.5-9.5v-10.2c0-5.2-4.2-9.5-9.5-9.5h-28.2c-7.4 0-13.4 6-13.4 13.4v5.6c0 5.8-3.7 10.9-9.2 12.7l-26.5 8.8c-4.3 1.4-4.6 5-4.6 8.2 0 3.7-3 6.7-6.7 6.7h-13.4c-3.7 0-6.7-3-6.7-6.7 0-8.4-12.5-8.6-15.3-3-9 12.4-11.5 18.2-19.9 18.2h-25.3c-7.4 0-13.4-6-13.4-13.4v-16.4c0-3.6 1.4-7 3.9-9.5 19.5-14 29.6-17.6 29.6-31.5 0-2.9 1.8-5.5 4.6-6.4l33.6-11.2c1.4-.5 2.7-1.2 3.7-2.3L313.9 95c5-5 3.5-14.9-6.7-14.9h-17.4L276.4 99v6.7c0 3.7-3 6.7-6.7 6.7h-15c-3.7 0-6.7-3-6.7-6.7V82.5c0-2.1 1-4.1 2.7-5.4l44-31.9C391.4 66.7 464 153 464 256c0 5.5-.4 11-.8 16.4h-32.5z"></path>
        </symbol>

        <symbol id="tvrtka" viewBox="0 0 448 512">
            <path d="M192 107v40c0 6.627-5.373 12-12 12h-40c-6.627 0-12-5.373-12-12v-40c0-6.627 5.373-12 12-12h40c6.627 0 12 5.373 12 12zm116-12h-40c-6.627 0-12 5.373-12 12v40c0 6.627 5.373 12 12 12h40c6.627 0 12-5.373 12-12v-40c0-6.627-5.373-12-12-12zm-128 96h-40c-6.627 0-12 5.373-12 12v40c0 6.627 5.373 12 12 12h40c6.627 0 12-5.373 12-12v-40c0-6.627-5.373-12-12-12zm128 0h-40c-6.627 0-12 5.373-12 12v40c0 6.627 5.373 12 12 12h40c6.627 0 12-5.373 12-12v-40c0-6.627-5.373-12-12-12zm-128 96h-40c-6.627 0-12 5.373-12 12v40c0 6.627 5.373 12 12 12h40c6.627 0 12-5.373 12-12v-40c0-6.627-5.373-12-12-12zm128 0h-40c-6.627 0-12 5.373-12 12v40c0 6.627 5.373 12 12 12h40c6.627 0 12-5.373 12-12v-40c0-6.627-5.373-12-12-12zm140 205v20H0v-20c0-6.627 5.373-12 12-12h20V24C32 10.745 42.745 0 56 0h336c13.255 0 24 10.745 24 24v456h20c6.627 0 12 5.373 12 12zm-64-12V32H64v448h128v-85c0-6.627 5.373-12 12-12h40c6.627 0 12 5.373 12 12v85h128z"></path>
        </symbol>

        <symbol id="oib" viewBox="0 0 448 512">
            <path d="M416 0H64C28.65 0 0 28.65 0 64v384c0 35.35 28.65 64 64 64h352c17.67 0 32-14.33 32-32V32c0-17.67-14.33-32-32-32zm0 480H64c-17.64 0-32-14.36-32-32V64c0-17.64 14.36-32 32-32h352v448zm-304-64h224c8.8 0 16-7.2 16-16s-7.2-16-16-16H112c-8.8 0-16 7.2-16 16s7.2 16 16 16zm112-96c70.69 0 128-57.31 128-128S294.69 64 224 64 96 121.31 96 192s57.31 128 128 128zm94.38-144h-39.09c-1.49-27.03-6.54-51.35-14.21-70.41 27.71 13.24 48.02 39.19 53.3 70.41zm-39.09 32h39.09c-5.29 31.22-25.59 57.17-53.3 70.41 7.68-19.06 12.72-43.38 14.21-70.41zM224 97.31c7.69 7.45 20.77 34.42 23.43 78.69h-46.87c2.67-44.26 15.75-71.24 23.44-78.69zM247.43 208c-2.66 44.26-15.74 71.24-23.43 78.69-7.69-7.45-20.77-34.42-23.43-78.69h46.86zm-64.51-102.41c-7.68 19.06-12.72 43.38-14.21 70.41h-39.09c5.28-31.22 25.59-57.17 53.3-70.41zM168.71 208c1.49 27.03 6.54 51.35 14.21 70.41-27.71-13.24-48.02-39.19-53.3-70.41h39.09z"></path>
        </symbol>

        <symbol id="otisak" viewBox="0 0 512 512">
            <path d="M256 169.92c-28.28.41-52.84 9.62-71.37 28.17-18 18-27.69 41.94-27.28 67.44.78 50.23-3.91 100.5-14 149.39-1.81 8.66 3.78 17.12 12.41 18.91 8.5 1.66 17.09-3.77 18.91-12.44 10.56-51.17 15.5-103.78 14.69-156.35-.25-16.77 6.09-32.5 17.91-44.31 18.66-18.66 42.27-18.8 48.75-18.8 37.12.55 66.41 30.19 66.97 66.06.78 50.37-2.97 100.86-11.12 150.06-1.44 8.72 4.44 16.95 13.16 18.39.91.16 1.78.22 2.66.22 7.69 0 14.47-5.55 15.75-13.39 8.47-51.08 12.34-103.48 11.56-155.79-.87-53-44.81-96.76-99-97.56zm-.09 86.09c-8.84.14-15.87 7.41-15.75 16.25 1.12 73.39-8.22 144.99-27.78 215.07l-1.22 4.33c-1.85 6.63 1.74 20.34 15.41 20.34 7 0 13.41-4.61 15.41-11.66l1.22-4.37c20.41-73.08 30.16-147.74 28.97-224.21-.14-8.84-8.23-15.9-16.26-15.75zM112.66 149.79c-25.19 30.98-38.72 70.11-38.09 110.15.62 39.56-2.62 79.14-9.59 117.61-1.56 8.7 4.19 17.03 12.91 18.61.97.17 1.91.25 2.87.25 7.56 0 14.31-5.42 15.72-13.14 7.34-40.53 10.72-82.18 10.09-123.82-.53-33.01 10.19-63.95 30.91-89.47 5.59-6.86 4.53-16.94-2.31-22.51-6.85-5.55-16.91-4.57-22.51 2.32zm399.22 103.03c-.25-16.5-2.19-33.03-5.75-49.14-1.91-8.61-10.34-14-19.06-12.17-8.62 1.91-14.09 10.44-12.19 19.08 3.09 14 4.78 28.39 5 42.73.12 7.66.16 15.31.09 22.97-.06 8.83 7.03 16.05 15.87 16.12h.12c8.78 0 15.94-7.08 16-15.87.07-7.91.04-15.81-.08-23.72zM252.6.05C182.63-1.29 118.32 24.88 70.32 72.91 24.04 119.22-.87 180.76.16 246.2c.12 7.55.06 15.09-.16 22.62-.25 8.83 6.72 16.2 15.56 16.45H16c8.62 0 15.75-6.87 16-15.55.22-8 .28-16.02.16-24.03-.9-56.69 20.69-110.04 60.78-150.16 41.78-41.84 98.9-64.37 159.15-63.48 74.69 1.09 144.87 38.23 187.75 99.32 5.12 7.23 15.12 8.97 22.28 3.91 7.25-5.08 9-15.05 3.91-22.28C417.28 43.52 337.5 1.3 252.6.05zm1.28 84.93a182.36 182.36 0 0 0-45.19 4.91c-8.59 2.03-13.91 10.66-11.87 19.26 2.03 8.58 10.75 13.87 19.25 11.86 12.12-2.86 25.09-4.25 37.31-4.03 82.78 1.22 151.12 67.56 152.37 147.89.62 39.65-1.34 79.59-5.81 118.7-1 8.78 5.31 16.7 14.09 17.7.62.08 1.22.11 1.84.11 8 0 14.94-6.02 15.87-14.19 4.62-40.47 6.62-81.79 6-122.82-1.49-97.44-83.99-177.92-183.86-179.39z"></path>
        </symbol>

        <symbol id="spremi" viewBox="0 0 448 512">
            <path d="M433.941 129.941l-83.882-83.882A48 48 0 0 0 316.118 32H48C21.49 32 0 53.49 0 80v352c0 26.51 21.49 48 48 48h352c26.51 0 48-21.49 48-48V163.882a48 48 0 0 0-14.059-33.941zM288 64v96H96V64h192zm128 368c0 8.822-7.178 16-16 16H48c-8.822 0-16-7.178-16-16V80c0-8.822 7.178-16 16-16h16v104c0 13.255 10.745 24 24 24h208c13.255 0 24-10.745 24-24V64.491a15.888 15.888 0 0 1 7.432 4.195l83.882 83.882A15.895 15.895 0 0 1 416 163.882V432zM224 232c-48.523 0-88 39.477-88 88s39.477 88 88 88 88-39.477 88-88-39.477-88-88-88zm0 144c-30.879 0-56-25.121-56-56s25.121-56 56-56 56 25.121 56 56-25.121 56-56 56z"></path>
        </symbol>

        <symbol id="uredi" viewBox="0 0 512 512">
            <path d="M493.255 56.236l-37.49-37.49c-24.993-24.993-65.515-24.994-90.51 0L12.838 371.162.151 485.346c-1.698 15.286 11.22 28.203 26.504 26.504l114.184-12.687 352.417-352.417c24.992-24.994 24.992-65.517-.001-90.51zM164.686 347.313c6.249 6.249 16.379 6.248 22.627 0L368 166.627l30.059 30.059L174 420.745V386h-48v-48H91.255l224.059-224.059L345.373 144 164.686 324.687c-6.249 6.248-6.249 16.378 0 22.626zm-38.539 121.285l-58.995 6.555-30.305-30.305 6.555-58.995L63.255 366H98v48h48v34.745l-19.853 19.853zm344.48-344.48l-49.941 49.941-82.745-82.745 49.941-49.941c12.505-12.505 32.748-12.507 45.255 0l37.49 37.49c12.506 12.506 12.507 32.747 0 45.255z"></path>
        </symbol>

        <symbol id="izbrisi" viewBox="0 0 448 512">
            <path d="M296 432h16a8 8 0 0 0 8-8V152a8 8 0 0 0-8-8h-16a8 8 0 0 0-8 8v272a8 8 0 0 0 8 8zm-160 0h16a8 8 0 0 0 8-8V152a8 8 0 0 0-8-8h-16a8 8 0 0 0-8 8v272a8 8 0 0 0 8 8zM440 64H336l-33.6-44.8A48 48 0 0 0 264 0h-80a48 48 0 0 0-38.4 19.2L112 64H8a8 8 0 0 0-8 8v16a8 8 0 0 0 8 8h24v368a48 48 0 0 0 48 48h288a48 48 0 0 0 48-48V96h24a8 8 0 0 0 8-8V72a8 8 0 0 0-8-8zM171.2 38.4A16.1 16.1 0 0 1 184 32h80a16.1 16.1 0 0 1 12.8 6.4L296 64H152zM384 464a16 16 0 0 1-16 16H80a16 16 0 0 1-16-16V96h320zm-168-32h16a8 8 0 0 0 8-8V152a8 8 0 0 0-8-8h-16a8 8 0 0 0-8 8v272a8 8 0 0 0 8 8z"></path>
        </symbol>

        <symbol id="zatvori" viewBox="0 0 20 20">
            <path d="M15.898,4.045c-0.271-0.272-0.713-0.272-0.986,0l-4.71,4.711L5.493,4.045c-0.272-0.272-0.714-0.272-0.986,0s-0.272,0.714,0,0.986l4.709,4.711l-4.71,4.711c-0.272,0.271-0.272,0.713,0,0.986c0.136,0.136,0.314,0.203,0.492,0.203c0.179,0,0.357-0.067,0.493-0.203l4.711-4.711l4.71,4.711c0.137,0.136,0.314,0.203,0.494,0.203c0.178,0,0.355-0.067,0.492-0.203c0.273-0.273,0.273-0.715,0-0.986l-4.711-4.711l4.711-4.711C16.172,4.759,16.172,4.317,15.898,4.045z"></path>
        </symbol>

        <symbol id="dostava" viewBox="0 0 640 512">
            <path d="M632 384h-24V275.9c0-16.8-6.8-33.3-18.8-45.2l-83.9-83.9c-11.8-12-28.3-18.8-45.2-18.8H416V78.6c0-25.7-22.2-46.6-49.4-46.6H49.4C22.2 32 0 52.9 0 78.6v290.8C0 395.1 22.2 416 49.4 416h16.2c-1.1 5.2-1.6 10.5-1.6 16 0 44.2 35.8 80 80 80s80-35.8 80-80c0-5.5-.6-10.8-1.6-16h195.2c-1.1 5.2-1.6 10.5-1.6 16 0 44.2 35.8 80 80 80s80-35.8 80-80c0-5.5-.6-10.8-1.6-16H632c4.4 0 8-3.6 8-8v-16c0-4.4-3.6-8-8-8zM460.1 160c8.4 0 16.7 3.4 22.6 9.4l83.9 83.9c.8.8 1.1 1.9 1.8 2.8H416v-96h44.1zM144 480c-26.5 0-48-21.5-48-48s21.5-48 48-48 48 21.5 48 48-21.5 48-48 48zm63.6-96C193 364.7 170 352 144 352s-49 12.7-63.6 32h-31c-9.6 0-17.4-6.5-17.4-14.6V78.6C32 70.5 39.8 64 49.4 64h317.2c9.6 0 17.4 6.5 17.4 14.6V384H207.6zM496 480c-26.5 0-48-21.5-48-48s21.5-48 48-48 48 21.5 48 48-21.5 48-48 48zm0-128c-26.1 0-49 12.7-63.6 32H416v-96h160v96h-16.4c-14.6-19.3-37.5-32-63.6-32z"></path>
        </symbol>

        <symbol id="artikl" viewBox="0 0 384 512">
            <path d="M369.9 97.9L286 14C277 5 264.8-.1 252.1-.1H48C21.5 0 0 21.5 0 48v416c0 26.5 21.5 48 48 48h288c26.5 0 48-21.5 48-48V131.9c0-12.7-5.1-25-14.1-34zm-22.6 22.7c2.1 2.1 3.5 4.6 4.2 7.4H256V32.5c2.8.7 5.3 2.1 7.4 4.2l83.9 83.9zM336 480H48c-8.8 0-16-7.2-16-16V48c0-8.8 7.2-16 16-16h176v104c0 13.3 10.7 24 24 24h104v304c0 8.8-7.2 16-16 16z"></path>
        </symbol>

        <symbol id="stablo" viewBox="0 0 640 512">
            <path d="M608 352h-32v-97.59c0-16.77-13.62-30.41-30.41-30.41H336v-64h48c17.67 0 32-14.33 32-32V32c0-17.67-14.33-32-32-32H256c-17.67 0-32 14.33-32 32v96c0 17.67 14.33 32 32 32h48v64H94.41C77.62 224 64 237.64 64 254.41V352H32c-17.67 0-32 14.33-32 32v96c0 17.67 14.33 32 32 32h96c17.67 0 32-14.33 32-32v-96c0-17.67-14.33-32-32-32H96v-96h208v96h-32c-17.67 0-32 14.33-32 32v96c0 17.67 14.33 32 32 32h96c17.67 0 32-14.33 32-32v-96c0-17.67-14.33-32-32-32h-32v-96h208v96h-32c-17.67 0-32 14.33-32 32v96c0 17.67 14.33 32 32 32h96c17.67 0 32-14.33 32-32v-96c0-17.67-14.33-32-32-32zm-480 32v96H32v-96h96zm240 0v96h-96v-96h96zM256 128V32h128v96H256zm352 352h-96v-96h96v96z"></path>
        </symbol>

        <symbol id="odjava" viewBox="0 0 512 512">
            <path d="M48 64h132c6.6 0 12 5.4 12 12v8c0 6.6-5.4 12-12 12H48c-8.8 0-16 7.2-16 16v288c0 8.8 7.2 16 16 16h132c6.6 0 12 5.4 12 12v8c0 6.6-5.4 12-12 12H48c-26.5 0-48-21.5-48-48V112c0-26.5 21.5-48 48-48zm279 19.5l-7.1 7.1c-4.7 4.7-4.7 12.3 0 17l132 131.4H172c-6.6 0-12 5.4-12 12v10c0 6.6 5.4 12 12 12h279.9L320 404.4c-4.7 4.7-4.7 12.3 0 17l7.1 7.1c4.7 4.7 12.3 4.7 17 0l164.5-164c4.7-4.7 4.7-12.3 0-17L344 83.5c-4.7-4.7-12.3-4.7-17 0z"></path>
        </symbol>

        <symbol id="kontrolna_ploca" viewBox="0 0 576 512">
            <path d="M528 0H48C21.5 0 0 21.5 0 48v288c0 26.5 21.5 48 48 48h480c26.5 0 48-21.5 48-48V48c0-26.5-21.5-48-48-48zM48 54c0-3.3 2.7-6 6-6h468c3.3 0 6 2.7 6 6v234H48V54zm432 434c0 13.3-10.7 24-24 24H120c-13.3 0-24-10.7-24-24s10.7-24 24-24h98.7l18.6-55.8c1.6-4.9 6.2-8.2 11.4-8.2h78.7c5.2 0 9.8 3.3 11.4 8.2l18.6 55.8H456c13.3 0 24 10.7 24 24z"></path>
        </symbol>

        <symbol id="puni_zaslon" viewBox="0 0 512 512">
            <path d="M0 212V88c0-13.3 10.7-24 24-24h124c6.6 0 12 5.4 12 12v8c0 6.6-5.4 12-12 12H32v116c0 6.6-5.4 12-12 12h-8c-6.6 0-12-5.4-12-12zM364 64h124c13.3 0 24 10.7 24 24v124c0 6.6-5.4 12-12 12h-8c-6.6 0-12-5.4-12-12V96H364c-6.6 0-12-5.4-12-12v-8c0-6.6 5.4-12 12-12zm148 236v124c0 13.3-10.7 24-24 24H364c-6.6 0-12-5.4-12-12v-8c0-6.6 5.4-12 12-12h116V300c0-6.6 5.4-12 12-12h8c6.6 0 12 5.4 12 12zM148 448H24c-13.3 0-24-10.7-24-24V300c0-6.6 5.4-12 12-12h8c6.6 0 12 5.4 12 12v116h116c6.6 0 12 5.4 12 12v8c0 6.6-5.4 12-12 12z"></path>
        </symbol>

        <symbol id="prozor_zaslon" viewBox="0 0 448 512">
            <path d="M436 192H312c-13.3 0-24-10.7-24-24V44c0-6.6 5.4-12 12-12h8c6.6 0 12 5.4 12 12v116h116c6.6 0 12 5.4 12 12v8c0 6.6-5.4 12-12 12zm-276-24V44c0-6.6-5.4-12-12-12h-8c-6.6 0-12 5.4-12 12v116H12c-6.6 0-12 5.4-12 12v8c0 6.6 5.4 12 12 12h124c13.3 0 24-10.7 24-24zm0 300V344c0-13.3-10.7-24-24-24H12c-6.6 0-12 5.4-12 12v8c0 6.6 5.4 12 12 12h116v116c0 6.6 5.4 12 12 12h8c6.6 0 12-5.4 12-12zm160 0V352h116c6.6 0 12-5.4 12-12v-8c0-6.6-5.4-12-12-12H312c-13.3 0-24 10.7-24 24v124c0 6.6 5.4 12 12 12h8c6.6 0 12-5.4 12-12z"></path>
        </symbol>

        <symbol id="sinkronizacija" viewBox="0 0 512 512">
            <path d="M457.373 9.387l-50.095 50.102C365.411 27.211 312.953 8 256 8 123.228 8 14.824 112.338 8.31 243.493 7.971 250.311 13.475 256 20.301 256h10.015c6.352 0 11.647-4.949 11.977-11.293C48.159 131.913 141.389 42 256 42c47.554 0 91.487 15.512 127.02 41.75l-53.615 53.622c-20.1 20.1-5.855 54.628 22.627 54.628H480c17.673 0 32-14.327 32-32V32.015c0-28.475-34.564-42.691-54.627-22.628zM480 160H352L480 32v128zm11.699 96h-10.014c-6.353 0-11.647 4.949-11.977 11.293C463.84 380.203 370.504 470 256 470c-47.525 0-91.468-15.509-127.016-41.757l53.612-53.616c20.099-20.1 5.855-54.627-22.627-54.627H32c-17.673 0-32 14.327-32 32v127.978c0 28.614 34.615 42.641 54.627 22.627l50.092-50.096C146.587 484.788 199.046 504 256 504c132.773 0 241.176-104.338 247.69-235.493.339-6.818-5.165-12.507-11.991-12.507zM32 480V352h128L32 480z"></path>
        </symbol>

        <symbol id="facebook" viewBox="0 0 512 512">
            <path d="M504 256C504 119 393 8 256 8S8 119 8 256c0 123.78 90.69 226.38 209.25 245V327.69h-63V256h63v-54.64c0-62.15 37-96.48 93.67-96.48 27.14 0 55.52 4.84 55.52 4.84v61h-31.28c-30.8 0-40.41 19.12-40.41 38.73V256h68.78l-11 71.69h-57.78V501C413.31 482.38 504 379.78 504 256z"/>
        </symbol>

        <symbol id="instagram" viewBox="0 0 448 512">
            <path d="M224,202.66A53.34,53.34,0,1,0,277.36,256,53.38,53.38,0,0,0,224,202.66Zm124.71-41a54,54,0,0,0-30.41-30.41c-21-8.29-71-6.43-94.3-6.43s-73.25-1.93-94.31,6.43a54,54,0,0,0-30.41,30.41c-8.28,21-6.43,71.05-6.43,94.33S91,329.26,99.32,350.33a54,54,0,0,0,30.41,30.41c21,8.29,71,6.43,94.31,6.43s73.24,1.93,94.3-6.43a54,54,0,0,0,30.41-30.41c8.35-21,6.43-71.05,6.43-94.33S357.1,182.74,348.75,161.67ZM224,338a82,82,0,1,1,82-82A81.9,81.9,0,0,1,224,338Zm85.38-148.3a19.14,19.14,0,1,1,19.13-19.14A19.1,19.1,0,0,1,309.42,189.74ZM400,32H48A48,48,0,0,0,0,80V432a48,48,0,0,0,48,48H400a48,48,0,0,0,48-48V80A48,48,0,0,0,400,32ZM382.88,322c-1.29,25.63-7.14,48.34-25.85,67s-41.4,24.63-67,25.85c-26.41,1.49-105.59,1.49-132,0-25.63-1.29-48.26-7.15-67-25.85s-24.63-41.42-25.85-67c-1.49-26.42-1.49-105.61,0-132,1.29-25.63,7.07-48.34,25.85-67s41.47-24.56,67-25.78c26.41-1.49,105.59-1.49,132,0,25.63,1.29,48.33,7.15,67,25.85s24.63,41.42,25.85,67.05C384.37,216.44,384.37,295.56,382.88,322Z"/>
        </symbol>

        <symbol id="viber" viewBox="0 0 512 512">
            <path d="M444 49.9C431.3 38.2 379.9.9 265.3.4c0 0-135.1-8.1-200.9 52.3C27.8 89.3 14.9 143 13.5 209.5c-1.4 66.5-3.1 191.1 117 224.9h.1l-.1 51.6s-.8 20.9 13 25.1c16.6 5.2 26.4-10.7 42.3-27.8 8.7-9.4 20.7-23.2 29.8-33.7 82.2 6.9 145.3-8.9 152.5-11.2 16.6-5.4 110.5-17.4 125.7-142 15.8-128.6-7.6-209.8-49.8-246.5zM457.9 287c-12.9 104-89 110.6-103 115.1-6 1.9-61.5 15.7-131.2 11.2 0 0-52 62.7-68.2 79-5.3 5.3-11.1 4.8-11-5.7 0-6.9.4-85.7.4-85.7-.1 0-.1 0 0 0-101.8-28.2-95.8-134.3-94.7-189.8 1.1-55.5 11.6-101 42.6-131.6 55.7-50.5 170.4-43 170.4-43 96.9.4 143.3 29.6 154.1 39.4 35.7 30.6 53.9 103.8 40.6 211.1zm-139-80.8c.4 8.6-12.5 9.2-12.9.6-1.1-22-11.4-32.7-32.6-33.9-8.6-.5-7.8-13.4.7-12.9 27.9 1.5 43.4 17.5 44.8 46.2zm20.3 11.3c1-42.4-25.5-75.6-75.8-79.3-8.5-.6-7.6-13.5.9-12.9 58 4.2 88.9 44.1 87.8 92.5-.1 8.6-13.1 8.2-12.9-.3zm47 13.4c.1 8.6-12.9 8.7-12.9.1-.6-81.5-54.9-125.9-120.8-126.4-8.5-.1-8.5-12.9 0-12.9 73.7.5 133 51.4 133.7 139.2zM374.9 329v.2c-10.8 19-31 40-51.8 33.3l-.2-.3c-21.1-5.9-70.8-31.5-102.2-56.5-16.2-12.8-31-27.9-42.4-42.4-10.3-12.9-20.7-28.2-30.8-46.6-21.3-38.5-26-55.7-26-55.7-6.7-20.8 14.2-41 33.3-51.8h.2c9.2-4.8 18-3.2 23.9 3.9 0 0 12.4 14.8 17.7 22.1 5 6.8 11.7 17.7 15.2 23.8 6.1 10.9 2.3 22-3.7 26.6l-12 9.6c-6.1 4.9-5.3 14-5.3 14s17.8 67.3 84.3 84.3c0 0 9.1.8 14-5.3l9.6-12c4.6-6 15.7-9.8 26.6-3.7 14.7 8.3 33.4 21.2 45.8 32.9 7 5.7 8.6 14.4 3.8 23.6z"/>
        </symbol>

        <symbol id="whatsup" viewBox="0 0 448 512">
            <path d="M380.9 97.1C339 55.1 283.2 32 223.9 32c-122.4 0-222 99.6-222 222 0 39.1 10.2 77.3 29.6 111L0 480l117.7-30.9c32.4 17.7 68.9 27 106.1 27h.1c122.3 0 224.1-99.6 224.1-222 0-59.3-25.2-115-67.1-157zm-157 341.6c-33.2 0-65.7-8.9-94-25.7l-6.7-4-69.8 18.3L72 359.2l-4.4-7c-18.5-29.4-28.2-63.3-28.2-98.2 0-101.7 82.8-184.5 184.6-184.5 49.3 0 95.6 19.2 130.4 54.1 34.8 34.9 56.2 81.2 56.1 130.5 0 101.8-84.9 184.6-186.6 184.6zm101.2-138.2c-5.5-2.8-32.8-16.2-37.9-18-5.1-1.9-8.8-2.8-12.5 2.8-3.7 5.6-14.3 18-17.6 21.8-3.2 3.7-6.5 4.2-12 1.4-32.6-16.3-54-29.1-75.5-66-5.7-9.8 5.7-9.1 16.3-30.3 1.8-3.7.9-6.9-.5-9.7-1.4-2.8-12.5-30.1-17.1-41.2-4.5-10.8-9.1-9.3-12.5-9.5-3.2-.2-6.9-.2-10.6-.2-3.7 0-9.7 1.4-14.8 6.9-5.1 5.6-19.4 19-19.4 46.3 0 27.3 19.9 53.7 22.6 57.4 2.8 3.7 39.1 59.7 94.8 83.8 35.2 15.2 49 16.5 66.6 13.9 10.7-1.6 32.8-13.4 37.4-26.4 4.6-13 4.6-24.1 3.2-26.4-1.3-2.5-5-3.9-10.5-6.6z"/>
        </symbol>

        <symbol id="akcija_novi" viewBox="0 0 192 192.75">
            <path d="M16.08,144.36c.41-3.93.84-8.23,1.33-12.54.39-3.53.48-6.71-2.72-9.45C10.63,118.89,7,114.85,3.24,111c-2.64-2.67-3-5.56-1-8.72,3-4.83,6.24-9.55,9-14.5A7.75,7.75,0,0,0,12,82.48c-1.4-5.13-3.3-10.13-4.94-15.2C5.33,62,6.19,60,11,57.24c4-2.24,7.93-4.63,12-6.72a8.79,8.79,0,0,0,5.08-7.38c.58-4.78,1.45-9.52,2.21-14.28.74-4.59,2.84-6.54,7.38-6.77,5.46-.28,10.94-.31,16.37-.88a8.61,8.61,0,0,0,5.25-2.66c3.16-3.78,5.85-8,8.74-12s5.73-4.93,10.29-2.91,9,4.13,13.45,6.4a8.53,8.53,0,0,0,8.43,0c4.41-2.27,8.91-4.39,13.45-6.41S121.05,2.52,124,6.57s5.57,8.2,8.74,12A8.55,8.55,0,0,0,138,21.21c5.43.57,10.91.59,16.37.88,5.28.28,7.35,2.95,8.12,10,.42,3.93,1.23,7.83,1.56,11.76.51,5.95,6,6.58,9.56,9.13,2.62,1.86,5.66,3.1,8.41,4.77,3.75,2.27,4.58,4.54,3.23,8.8-1.69,5.32-3.69,10.54-5.18,15.91a7.75,7.75,0,0,0,.71,5.34c2.81,5,6,9.67,9.05,14.5,2,3.15,1.62,6-1,8.71-3.78,3.82-7.38,7.85-11.45,11.34-3.2,2.74-3.09,5.92-2.71,9.45.49,4.43,1,8.86,1.31,13.3.3,3.88-1.58,6.4-5.3,7.48-5.35,1.56-10.69,3.12-16.06,4.58a5.59,5.59,0,0,0-4.34,3.9c-1.87,5.24-4.24,10.31-6.47,15.42-1.66,3.8-4.08,4.88-8.29,4.06-5.82-1.14-11.65-2.27-17.51-3.17a5.66,5.66,0,0,0-3.92,1c-4.51,3.48-8.8,7.24-13.25,10.81-3.19,2.57-6.3,2.59-9.46.06-4.36-3.49-8.77-6.91-12.87-10.69-2.14-2-4.31-1.48-6.52-1.1-5.11.89-10.18,2-15.27,3-4.25.87-6.75-.32-8.54-4.37-2.2-5-4.49-10-6.31-15.09a5.58,5.58,0,0,0-4.33-3.9c-5.25-1.42-10.49-2.91-15.69-4.51C17.23,151.27,16.07,149.52,16.08,144.36Zm72-69.79c0-13-8.11-21.21-20.26-21.75-15.79-.7-23,10-23.13,21.64-.09,13,8.64,21.85,21.46,21.87C79.41,96.34,88.06,87.76,88.08,74.57Zm37.47,65.26c12.6,1.48,22.11-9.2,21.83-21.17-.33-13.74-8.95-21.51-21.87-21.35-12.75.16-21.09,6.75-21.57,21.63C103.55,131.06,113,141,125.55,139.83ZM67,140.57c3.59,0,6.46.19,9.27-.1a4.62,4.62,0,0,0,3-2.1C87.26,124,95.12,109.46,103,95q9.42-17.33,18.78-34.66c1.08-2,2-4.09,3.15-6.65a48.83,48.83,0,0,1-6.72-.05c-3.62-.56-5.41,1.28-6.94,4.2Q102.09,75.27,92.7,92.61C87,103.08,81.25,113.47,75.59,123.94,72.73,129.23,70,134.61,67,140.57Z"/>
            <path d="M73,74.52c-.56,3.1-.59,6-1.68,8.34-.74,1.62-3,3.52-4.55,3.54s-4-1.81-4.68-3.41a20.82,20.82,0,0,1,.14-16.63,5.57,5.57,0,0,1,4.15-2.85,6.07,6.07,0,0,1,4.59,2.74C72.15,68.85,72.38,71.91,73,74.52Z"/>
            <path d="M131.8,118.89c-.58,2.77-.69,5.65-1.86,8-.75,1.52-3.06,3.17-4.65,3.15s-4.46-1.9-4.58-3.18a84.19,84.19,0,0,1,.08-16.11c.13-1.25,3-3,4.65-3.1,1.47-.08,3.75,1.52,4.41,3C131,113.16,131.21,116.12,131.8,118.89Z"/>
        </symbol>

        <symbol id="akcija_novi2" viewBox="0 0 488.027 488.027">
            <circle cx="179.163" cy="202.563" r="20.4"/>
            <circle cx="308.763" cy="285.363" r="20.4"/>
            <path d="M476.963,270.963l-7.4-10.1c-8-11-8.2-25.9-0.3-37.1l7.2-10.2c11-15.6,5.9-37.3-11-46.4l-11-5.9c-12-6.4-18.6-19.8-16.3-33.3l2.1-12.3c3.2-18.8-10.9-36.2-30-37l-12.5-0.5c-13.6-0.6-25.4-9.8-29.2-22.9l-3.5-12c-5.3-18.4-25.5-27.9-43.1-20.3l-11.5,4.9c-12.5,5.4-27.1,2.2-36.2-8l-8.3-9.3c-12.7-14.2-35-14.1-47.6,0.4l-8.2,9.4c-9,10.3-23.5,13.7-36.1,8.5l-11.6-4.8c-17.7-7.3-37.7,2.6-42.8,21l-3.3,12.1c-3.6,13.2-15.2,22.6-28.8,23.3l-12.5,0.7c-19.1,1.1-32.9,18.7-29.4,37.5l2.3,12.3c2.5,13.4-3.9,26.9-15.8,33.5l-10.9,6.1c-16.7,9.3-21.5,31.1-10.2,46.5l7.4,10.1c8,11,8.2,25.9,0.3,37.1l-7.2,10.2c-11,15.6-5.9,37.3,11,46.4l11,5.9c12,6.4,18.6,19.8,16.3,33.3l-2.1,12.3c-3.2,18.8,10.9,36.2,30,37l12.5,0.5c13.6,0.6,25.4,9.8,29.2,22.9l3.5,12c5.3,18.4,25.5,27.9,43.1,20.3l11.5-4.9c12.5-5.4,27.1-2.2,36.2,8l8.3,9.3c12.8,14.2,35.1,14.1,47.6-0.4l8.2-9.4c9-10.3,23.5-13.7,36.1-8.5l11.6,4.8c17.7,7.3,37.7-2.6,42.8-21l3.3-12.1c3.6-13.2,15.2-22.6,28.8-23.3l12.5-0.7c19.1-1.1,32.9-18.7,29.4-37.5l-2.3-12.3c-2.5-13.4,3.9-26.9,15.8-33.5l10.9-6.1C483.463,308.263,488.263,286.463,476.963,270.963z M129.863,202.563c0-27.2,22-49.2,49.2-49.2s49.2,22,49.2,49.2s-22,49.2-49.2,49.2S129.863,229.663,129.863,202.563z M188.563,329.463c-4.2,5.1-11.8,5.8-16.9,1.6l0,0c-5.1-4.2-5.8-11.8-1.6-16.9l129.1-155.5c4.2-5.1,11.8-5.8,16.9-1.6s5.8,11.8,1.6,16.9L188.563,329.463z M308.763,334.563c-27.2,0-49.2-22-49.2-49.2s22-49.2,49.2-49.2s49.2,22,49.2,49.2S335.963,334.563,308.763,334.563z"/>
        </symbol>
        <symbol id="akcija_sale" viewBox="0 0 297.774 297.774">
            <path d="M131.365,134.201c-0.66,2.64-4.685,18.017-4.685,18.017h9.833c0,0-4.355-15.377-5.016-18.017H131.365z"/>
            <path d="M148.887,54.553c-52.016,0-94.333,42.318-94.333,94.334s42.317,94.333,94.333,94.333s94.334-42.317,94.334-94.333
            S200.903,54.553,148.887,54.553z M90.117,171.818c-3.15,0-6.274-0.507-8.792-1.223c-2.178-0.619-3.477-2.852-2.936-5.05l0.017-0.07
            c0.276-1.121,1.002-2.079,2.006-2.65c1.005-0.569,2.199-0.699,3.304-0.361c2.123,0.649,4.537,1.105,6.995,1.105
            c4.619,0,7.062-1.914,7.062-4.818c0-2.771-2.112-4.355-7.458-6.27c-7.391-2.573-12.209-6.665-12.209-13.133
            c0-7.589,6.336-13.396,16.829-13.396c2.825,0,5.231,0.335,7.267,0.84c1.099,0.272,2.041,0.979,2.613,1.956
            c0.571,0.978,0.726,2.146,0.424,3.237l-0.01,0.033c-0.6,2.17-2.831,3.453-5.009,2.881c-1.532-0.402-3.368-0.698-5.483-0.698
            c-4.355,0-6.468,1.98-6.468,4.29c0,2.838,2.508,4.092,8.25,6.27c7.853,2.903,11.549,6.995,11.549,13.265
            C108.067,165.482,102.324,171.818,90.117,171.818z M149.375,169.063c-0.971,1.317-2.511,2.096-4.147,2.096
            c-2.274,0-4.279-1.491-4.934-3.669l-2.329-7.748h-12.737l-2.164,7.8c-0.594,2.138-2.54,3.617-4.758,3.617
            c-1.565,0-3.038-0.742-3.97-2.001c-0.931-1.258-1.21-2.883-0.753-4.38l10.752-35.181c0.53-1.734,2.131-2.919,3.945-2.919h7.107
            c1.807,0,3.404,1.177,3.939,2.903l10.821,34.899C150.633,166.044,150.346,167.745,149.375,169.063z M181.722,171.158h-19.437
            c-2.277,0-4.124-1.847-4.124-4.125v-35.307c0-2.788,2.261-5.049,5.049-5.049c2.788,0,5.049,2.261,5.049,5.049v30.984h13.463
            c2.333,0,4.224,1.891,4.224,4.224C185.946,169.268,184.055,171.158,181.722,171.158z M219.341,130.803
            c0,2.278-1.847,4.125-4.125,4.125h-13.231v9.239h12.275c2.259,0,4.091,1.832,4.091,4.091c0,2.26-1.832,4.092-4.091,4.092h-12.275
            v10.56h14.156c2.277,0,4.124,1.847,4.124,4.124c0,2.278-1.847,4.125-4.124,4.125h-20.129c-2.278,0-4.125-1.847-4.125-4.125v-36.23
            c0-2.278,1.847-4.125,4.125-4.125h19.204C217.494,126.678,219.341,128.524,219.341,130.803z"/>
            <path d="M290.904,131.693l-15.645-16.453c-3.406-3.582-5.009-8.513-4.358-13.413l2.987-22.505
            c1.748-13.178-7.142-25.411-20.213-27.82l-22.329-4.115c-4.861-0.895-9.056-3.942-11.41-8.289l-10.811-19.963
            c-6.331-11.687-20.714-16.36-32.705-10.626l-20.481,9.796c-4.459,2.133-9.645,2.133-14.104,0l-20.481-9.796
            C109.363,2.774,94.98,7.447,88.649,19.135L77.837,39.098c-2.353,4.347-6.55,7.394-11.41,8.289l-22.329,4.114
            c-13.07,2.41-21.96,14.644-20.212,27.821l2.987,22.505c0.649,4.9-0.952,9.831-4.359,13.413L6.869,131.693
            c-9.159,9.632-9.159,24.753,0,34.387l15.646,16.454c3.406,3.581,5.008,8.512,4.358,13.411l-2.987,22.507
            c-1.748,13.178,7.142,25.41,20.212,27.82l22.33,4.115c4.859,0.896,9.056,3.942,11.409,8.289l10.812,19.962
            c6.331,11.688,20.714,16.36,32.703,10.627l20.483-9.796c4.459-2.133,9.645-2.133,14.104,0l20.482,9.796
            c11.99,5.733,26.373,1.061,32.704-10.627l10.811-19.962c2.355-4.347,6.549-7.393,11.41-8.289l22.33-4.115
            c13.07-2.41,21.96-14.643,20.212-27.82l-2.987-22.507c-0.65-4.899,0.952-9.83,4.357-13.411l15.646-16.454
            C300.064,156.446,300.064,141.325,290.904,131.693z M148.887,262.996c-63.021,0-114.11-51.088-114.11-114.109
            c0-63.021,51.089-114.109,114.11-114.109c63.021,0,114.109,51.089,114.109,114.109
            C262.996,211.908,211.908,262.996,148.887,262.996z"/>
        </symbol>

        <symbol id="meni_novi" viewBox="0 0 800 800">
            <path d="M801,431c-.81,4.57-1.67,9.13-2.41,13.72-2.1,13-3.83,26.1-6.28,39-4,21.27-9.9,42.11-18.51,62C765.87,564,757.24,582,747.9,599.63a305.78,305.78,0,0,1-22.18,35.14c-15.66,21.76-32.91,42.27-53.28,59.82-14.7,12.65-29.67,25.09-45.34,36.51-14.27,10.41-32.27,5.78-41.08-8.35s-4.63-30,8.17-39c21.35-15,41.3-31.56,58.82-50.8a334.3,334.3,0,0,0,42.18-56.77c11.33-19.47,21.23-39.59,28.65-60.82a352.37,352.37,0,0,0,15.82-63.7,348.16,348.16,0,0,0,3.63-64.95c-.43-11.85-2.27-23.66-3.6-35.47-2.36-20.9-7.72-41.17-14.48-61A312.36,312.36,0,0,0,709,252c-6.76-13.55-14.25-26.8-22.32-39.61-10-15.92-22.25-30.2-34.89-44.2-18.08-20-38.61-37.11-60.79-52.13a328.1,328.1,0,0,0-93.77-43.95c-20.11-5.78-40.57-10.57-61.63-11.56-17.56-.83-35.21-2.69-52.68-1.65-18.85,1.12-37.71,4.25-56.27,8C296.7,73,268.38,84,241.37,98.26c-20.19,10.65-39.32,23-56.65,37.85-10.93,9.4-22.19,18.62-31.84,29.25-11.95,13.17-22.6,27.55-33.4,41.71s-19.21,29.61-26.9,45.54A326.81,326.81,0,0,0,64.72,337a420.48,420.48,0,0,0-5,41.75,325.41,325.41,0,0,0-.94,37.34c.41,11.34,2.39,22.63,3.6,34a254.41,254.41,0,0,0,14.54,61,512.05,512.05,0,0,0,24.46,55.24c11.22,22,25.92,41.79,42.18,60.29,13.58,15.47,28.12,30.12,44.89,42.23,13,9.36,25.76,19.11,39.53,27.14,14.5,8.46,29.85,15.57,45.22,22.41,23,10.25,47.41,16.19,72.09,20.75,10.21,1.89,20.67,2.54,31.05,3.29,9.42.69,18.9.65,28.34,1.11,11.69.56,24.09,12.93,24.9,24.68,1,13.77-4.08,24.23-16.85,30.44A13,13,0,0,0,410,801H371a17.36,17.36,0,0,0-3.85-1.36c-4.61-.48-9.32-.33-13.85-1.19-19.41-3.69-38.93-7-58.09-11.7-23.75-5.86-46.36-15-68.42-25.72a387.15,387.15,0,0,1-56.23-33c-23-16.43-44.39-34.75-63.43-55.85a446.31,446.31,0,0,1-40.55-51.74A386.66,386.66,0,0,1,20.9,526.28c-8.76-26.68-15-54-17.56-82.06C2.94,439.78,1.8,435.41,1,431V371a11.06,11.06,0,0,0,1.34-2.86c2.82-18.74,4.73-37.67,8.54-56.2a335.75,335.75,0,0,1,22.47-69.07c10.76-24.12,23.12-47.36,38.58-69,11.16-15.58,22.36-31.06,36-44.54C121.17,116.24,134.39,103,148.63,91c12.19-10.27,25.51-19.28,38.85-28.06a285.41,285.41,0,0,1,32.25-18.3c15.28-7.39,30.7-14.76,46.68-20.38,17-6,34.7-10.48,52.33-14.58,12.81-3,26-4.23,39-6.3C362.2,2.67,366.59,1.8,371,1h60c.62.44,1.2,1.18,1.86,1.26,9,1.11,18.13,1.65,27,3.26,16.36,3,32.85,5.67,48.85,10.07a376.08,376.08,0,0,1,66.94,25.57,425.56,425.56,0,0,1,56.18,33.13,372.83,372.83,0,0,1,64.88,57.21A420.75,420.75,0,0,1,733,177.9a496.84,496.84,0,0,1,30.47,53.75,315.4,315.4,0,0,1,26.05,74.07c3.7,17.21,6.12,34.7,9.13,52.06.77,4.41,1.59,8.81,2.39,13.22Z" transform="translate(-1 -1)"/>
            <path d="M401.48,375.21c70.64,0,141.29.09,211.93-.09,12,0,21.5,3.86,27.61,14.43,10.65,18.4-2.79,42-24.08,42q-215.93.09-431.85,0a27.85,27.85,0,0,1-27.69-27.17c-.17-16.27,11.29-28.95,27.15-29,48.32-.23,96.64-.14,145-.17Q365.5,375.19,401.48,375.21Z" transform="translate(-1 -1)"/>
            <path d="M470,316.66q-73,0-145.92,0c-13.31,0-23.95-8.58-27.24-21.43-4.43-17.32,8.84-34.82,26.69-34.83q146.93-.08,293.84,0c14.81,0,27.11,12.65,27.19,27.61.08,15.8-11.78,28.58-27.14,28.62C568.32,316.73,519.18,316.65,470,316.66Z" transform="translate(-1 -1)"/>
            <path d="M525.57,485.33c30.3,0,60.61-.05,90.92,0a27.53,27.53,0,0,1,26.3,17.94,28.29,28.29,0,0,1-7.33,31.06,26.76,26.76,0,0,1-18.56,7.32q-91.41-.06-182.83,0a27.47,27.47,0,0,1-27.7-27.45c-.1-16.36,11.41-28.72,27.28-28.8C464.29,485.24,494.93,485.34,525.57,485.33Z" transform="translate(-1 -1)"/>
        </symbol>

        <symbol id="strelica_lijevo" viewBox="0 0 256 512">
            <path d="M238.475 475.535l7.071-7.07c4.686-4.686 4.686-12.284 0-16.971L50.053 256 245.546 60.506c4.686-4.686 4.686-12.284 0-16.971l-7.071-7.07c-4.686-4.686-12.284-4.686-16.97 0L10.454 247.515c-4.686 4.686-4.686 12.284 0 16.971l211.051 211.05c4.686 4.686 12.284 4.686 16.97-.001z"></path>
        </symbol>
        <symbol id="strelica_lijevo_duplo" viewBox="0 0 384 512">
            <path d="M349.5 475.5l-211.1-211c-4.7-4.7-4.7-12.3 0-17l211.1-211c4.7-4.7 12.3-4.7 17 0l7.1 7.1c4.7 4.7 4.7 12.3 0 17L178.1 256l195.5 195.5c4.7 4.7 4.7 12.3 0 17l-7.1 7.1c-4.7 4.6-12.3 4.6-17-.1zm-111 0l7.1-7.1c4.7-4.7 4.7-12.3 0-17L50.1 256 245.5 60.5c4.7-4.7 4.7-12.3 0-17l-7.1-7.1c-4.7-4.7-12.3-4.7-17 0l-211.1 211c-4.7 4.7-4.7 12.3 0 17l211.1 211c4.8 4.8 12.4 4.8 17.1.1z"></path>
        </symbol>
        <symbol id="strelica_lijevo_duplo2" viewBox="0 0 320 512">
            <path d="M153.1 247.5l117.8-116c4.7-4.7 12.3-4.7 17 0l7.1 7.1c4.7 4.7 4.7 12.3 0 17L192.7 256l102.2 100.4c4.7 4.7 4.7 12.3 0 17l-7.1 7.1c-4.7 4.7-12.3 4.7-17 0L153 264.5c-4.6-4.7-4.6-12.3.1-17zm-128 17l117.8 116c4.7 4.7 12.3 4.7 17 0l7.1-7.1c4.7-4.7 4.7-12.3 0-17L64.7 256l102.2-100.4c4.7-4.7 4.7-12.3 0-17l-7.1-7.1c-4.7-4.7-12.3-4.7-17 0L25 247.5c-4.6 4.7-4.6 12.3.1 17z"></path>
        </symbol>
        <symbol id="strelica_desno" viewBox="0 0 256 512">
            <path d="M17.525 36.465l-7.071 7.07c-4.686 4.686-4.686 12.284 0 16.971L205.947 256 10.454 451.494c-4.686 4.686-4.686 12.284 0 16.971l7.071 7.07c4.686 4.686 12.284 4.686 16.97 0l211.051-211.05c4.686-4.686 4.686-12.284 0-16.971L34.495 36.465c-4.686-4.687-12.284-4.687-16.97 0z"></path>
        </symbol>
        <symbol id="strelica_desno_duplo" viewBox="0 0 384 512">
            <path d="M34.5 36.5l211.1 211c4.7 4.7 4.7 12.3 0 17l-211.1 211c-4.7 4.7-12.3 4.7-17 0l-7.1-7.1c-4.7-4.7-4.7-12.3 0-17L205.9 256 10.5 60.5c-4.7-4.7-4.7-12.3 0-17l7.1-7.1c4.6-4.6 12.2-4.6 16.9.1zm111 0l-7.1 7.1c-4.7 4.7-4.7 12.3 0 17L333.9 256 138.5 451.5c-4.7 4.7-4.7 12.3 0 17l7.1 7.1c4.7 4.7 12.3 4.7 17 0l211.1-211c4.7-4.7 4.7-12.3 0-17l-211.1-211c-4.8-4.8-12.4-4.8-17.1-.1z"></path>
        </symbol>
        <symbol id="strelica_desno_duplo2" viewBox="0 0 320 512">
            <path d="M166.9 264.5l-117.8 116c-4.7 4.7-12.3 4.7-17 0l-7.1-7.1c-4.7-4.7-4.7-12.3 0-17L127.3 256 25.1 155.6c-4.7-4.7-4.7-12.3 0-17l7.1-7.1c4.7-4.7 12.3-4.7 17 0l117.8 116c4.6 4.7 4.6 12.3-.1 17zm128-17l-117.8-116c-4.7-4.7-12.3-4.7-17 0l-7.1 7.1c-4.7 4.7-4.7 12.3 0 17L255.3 256 153.1 356.4c-4.7 4.7-4.7 12.3 0 17l7.1 7.1c4.7 4.7 12.3 4.7 17 0l117.8-116c4.6-4.7 4.6-12.3-.1-17z"></path>
        </symbol>
        <symbol id="strelica_gore" viewBox="0 0 256 512">
            <path d="M136.5 185.1l116 117.8c4.7 4.7 4.7 12.3 0 17l-7.1 7.1c-4.7 4.7-12.3 4.7-17 0L128 224.7 27.6 326.9c-4.7 4.7-12.3 4.7-17 0l-7.1-7.1c-4.7-4.7-4.7-12.3 0-17l116-117.8c4.7-4.6 12.3-4.6 17 .1z"></path>
        </symbol>

        <symbol id="strelica_dole" viewBox="0 0 256 512">
            <path d="M119.5 326.9L3.5 209.1c-4.7-4.7-4.7-12.3 0-17l7.1-7.1c4.7-4.7 12.3-4.7 17 0L128 287.3l100.4-102.2c4.7-4.7 12.3-4.7 17 0l7.1 7.1c4.7 4.7 4.7 12.3 0 17L136.5 327c-4.7 4.6-12.3 4.6-17-.1z"></path>
        </symbol>

        <symbol id="info" viewBox="0 0 512 512">
            <path d="M256 8C119.043 8 8 119.083 8 256c0 136.997 111.043 248 248 248s248-111.003 248-248C504 119.083 392.957 8 256 8zm0 110c23.196 0 42 18.804 42 42s-18.804 42-42 42-42-18.804-42-42 18.804-42 42-42zm56 254c0 6.627-5.373 12-12 12h-88c-6.627 0-12-5.373-12-12v-24c0-6.627 5.373-12 12-12h12v-64h-12c-6.627 0-12-5.373-12-12v-24c0-6.627 5.373-12 12-12h64c6.627 0 12 5.373 12 12v100h12c6.627 0 12 5.373 12 12v24z"></path>
        </symbol>

        <symbol id="novo" viewBox="0 0 512 512">
            <g>
                <path d="M229.909 247.767c-9.482 4.024-12.565 11.602-8.95 20.163l28.877-12.216c-3.082-7.342-12.431-11.12-19.927-7.946z" />
                <path d="M463.35 277.791l35.87-21.76-35.87-21.822 30.577-28.785-39.639-13.865 23.921-34.499-41.656-5.304 16.22-38.738-41.831 3.481 7.834-41.278-40.223 12.083-0.942-41.964-36.823 20.203-9.625-40.878-31.815 27.422-17.93-38.001-25.416 33.403-25.436-33.403-17.879 38.001-31.826-27.422-9.625 40.878-36.833-20.203-0.942 41.964-40.222-12.083 7.844 41.278-41.861-3.481 16.241 38.738-41.646 5.304 23.931 34.499-39.66 13.865 30.587 28.785-35.87 21.822 35.87 21.76-30.597 28.795 39.66 13.824-23.931 34.519 41.646 5.325-16.24 38.738 41.861-3.481-7.844 41.277 40.222-12.103 0.942 41.964 36.834-20.183 9.625 40.878 31.826-27.423 17.879 37.98 25.447-33.413 25.406 33.423 17.93-37.98 31.815 27.423 9.625-40.878 36.823 20.183 0.942-41.964 40.223 12.103-7.834-41.278 41.83 3.481-16.22-38.738 41.656-5.325-23.921-34.519 39.639-13.824-30.567-28.805zM173.537 345.825l-17.92-42.322c-3.349-7.957-8.438-14.080-17.48-10.281-9.79 4.158-9.728 11.52-5.397 21.74l17.285 40.817-31.826 13.445-33.874-80.077 29.041-12.257 5.314 12.503c3.103-12.656 8.694-21.135 20.787-26.255 21.074-8.919 36.26-0.738 45.578 21.258l20.265 48.005-31.774 13.425zM256.43 313.488c-25.672 10.844-51.753 4.577-63.13-22.323-11.111-26.276 1.495-51.435 27.166-62.3 29.655-12.544 56.207 0.399 68.034 29.645l-60.702 25.62c4.045 9.502 13.998 12.656 22.405 9.103 5.059-2.12 8.674-6.359 8.98-12.063l30.392-12.861c2.908 22.2-14.5 37.305-33.147 45.179zM384.031 256.829l-32.256-41.697-0.286 0.164 8.694 51.641-31.038 13.097-60.303-68.905 31.017-13.118 33.188 44.339 0.297-0.123-8.571-54.763 26.921-11.376 33.157 44.339 0.297-0.123-8.55-54.743 30.116-12.759 8.325 90.9-31.007 13.128z" />
            </g>
        </symbol>

        <symbol id="gratis" viewBox="0 0 360.18 396">
            <g>
                <rect class="a" x="14.56" y="206.73" width="139.08" height="189.27"/>
                <rect class="a" x="206.53" y="206.73" width="139.08" height="189.27"/>
                <rect class="a" y="133.05" width="153.64" height="63.9"/>
                <rect class="a" x="206.53" y="133.05" width="153.64" height="63.9"/>
                <path class="a" d="M305.75,292.85c25.72,4.58,63.26,3.88,93.64,4.85v0h1.22v0c30.38-1,67.92-.27,93.64-4.85a240.37,240.37,0,0,0,53.88-16.14l-29-2.95s5.62-27.74,2.1-19.54-29.95,20.87-50.73,25.12c-13.46,2.76-36.2,3.86-52.35,4.31,35.66-4,76.52-16.21,93.16-46,11.33-20.26,0-42.9-23.95-44.55-2.57-5.76-5.13-11-10.76-15.17-15-11.11-33.82-8.8-46.34,4.24C410,203.33,402.08,237.64,400,267.51c-2.09-29.87-10-64.18-30.31-85.33-12.52-13-31.37-15.35-46.34-4.24-5.63,4.18-8.19,9.41-10.75,15.17-24,1.65-35.29,24.29-24,44.55,16.64,29.78,57.5,42,93.16,46-16.15-.45-38.9-1.55-52.35-4.31-20.78-4.25-47.22-16.92-50.73-25.12s2.1,19.54,2.1,19.54l-28.95,2.95A240.37,240.37,0,0,0,305.75,292.85Zm158-98.9c4.51,3.47,4.25,12.38,9.5,16.63,6.73,5.45,16.59-.67,21.26,7.83,5.7,11.08-15.72,28.85-25.49,35.45-20.45,13.29-43.56,21.53-66.53,30.08C409.43,264.94,436.55,172.65,463.75,194ZM331,253.86c-9.77-6.6-31.19-24.37-25.49-35.45,4.68-8.5,14.53-2.38,21.26-7.83,5.25-4.25,5-13.16,9.5-16.63,27.2-21.3,54.32,71,61.26,90C374.54,275.39,351.43,267.15,331,253.86Z" transform="translate(-219.91 -170.84)"/>
                <rect class="a" x="164.8" y="133.05" width="30.59" height="262.95"/>
            </g>
        </symbol>

    </defs>

</svg>