<svg version="1.1" xmlns="http://www.w3.org/2000/svg" xmlns:xlink="http://www.w3.org/1999/xlink">

    <defs>

        <symbol id="novaavantura" viewBox="0 0 24 24">
            <path d="M17.295 17.484c.227.403.57.728.985.931-.309.15-.647.229-.99.232h-3.068a2.26 2.26 0 0 1-1.957-1.143L6.705
            6.511a2.27 2.27 0 0 0-.974-.922c.309-.153.652-.233.997-.232h3.05c.81.003 1.558.438 1.959 1.143l5.558
            10.984zm-9.329-7.392L6.269 6.755c-.209-.392-.582-.657-.984-.829-.204.165-.391.35-.522.581-.184.349-4.391
            8.648-4.569 8.987a2.245 2.245 0 0 0 4.016 1.999l3.756-7.401zm15.846-1.593a2.245 2.245 0 0 0-1.162-2.955v-.001a2.243
            2.243 0 0 0-.892-.187l-.003-.011c-.816 0-1.569.443-1.965 1.157l-3.749 7.414 1.689
            3.323c.213.399.59.664.998.839.252-.2.473-.444.605-.742l4.479-8.837z"/>
        </symbol>

        <symbol id="strelica_dole" viewBox="0 0 24 24">
            <path fill-rule="evenodd" d="M11.314,16.991l-8.75-8.75c-0.117-0.13-0.176-0.28-0.176-0.449c0-0.169,0.059-0.319,0.176-0.449
            c0.13-0.117,0.28-0.176,0.449-0.176c0.169,0,0.319,0.059,0.449,0.176l8.301,8.32l8.301-8.32c0.13-0.117,0.28-0.176,0.449-0.176
            c0.169,0,0.319,0.059,0.449,0.176c0.117,0.13,0.176,0.28,0.176,0.449c0,0.169-0.059,0.319-0.176,0.449l-8.75,8.75
            c-0.065,0.052-0.137,0.095-0.215,0.127c-0.078,0.033-0.156,0.049-0.234,0.049s-0.156-0.016-0.234-0.049
            C11.451,17.086,11.379,17.043,11.314,16.991z"/>
        </symbol>

        <symbol id="strelica_gore" viewBox="0 0 24 24">
            <path fill-rule="evenodd" d="M3.379,16.991c-0.13,0.117-0.28,0.176-0.449,0.176s-0.319-0.059-0.449-0.176c-0.117-0.13-0.176-0.28-0.176-0.449
            c0-0.169,0.059-0.319,0.176-0.449l8.75-8.75c0.13-0.117,0.28-0.176,0.449-0.176s0.319,0.059,0.449,0.176l8.75,8.75
            c0.117,0.13,0.176,0.28,0.176,0.449c0,0.169-0.059,0.319-0.176,0.449c-0.065,0.052-0.137,0.095-0.215,0.127
            c-0.078,0.033-0.156,0.049-0.234,0.049s-0.156-0.016-0.234-0.049c-0.078-0.032-0.149-0.075-0.215-0.127l-8.301-8.32L3.379,16.991z"/>
        </symbol>

        <symbol id="strelica_desno" viewBox="0 0 24 24">
            <path fill-rule="evenodd" d="M6.708,20.917c0-0.169,0.059-0.319,0.176-0.449l8.32-8.301l-8.32-8.301c-0.117-0.13-0.176-0.28-0.176-0.449
            c0-0.169,0.059-0.319,0.176-0.449c0.13-0.117,0.279-0.176,0.449-0.176c0.169,0,0.318,0.059,0.449,0.176l8.75,8.75
            c0.117,0.13,0.176,0.28,0.176,0.449c0,0.169-0.059,0.319-0.176,0.449l-8.75,8.75c-0.065,0.052-0.137,0.094-0.215,0.127
            c-0.078,0.032-0.156,0.049-0.234,0.049s-0.156-0.017-0.234-0.049c-0.078-0.033-0.15-0.075-0.215-0.127
            C6.767,21.236,6.708,21.086,6.708,20.917z"/>
        </symbol>

        <symbol id="strelica_lijevo" viewBox="0 0 24 24">
            <path fill-rule="evenodd" d="M16.736,3.417c0,0.169-0.059,0.319-0.176,0.449l-8.32,8.301l8.32,8.301c0.117,0.13,0.176,0.28,0.176,0.449
            s-0.059,0.319-0.176,0.449c-0.065,0.052-0.137,0.094-0.215,0.127c-0.078,0.032-0.156,0.049-0.234,0.049s-0.156-0.017-0.234-0.049
            c-0.078-0.033-0.149-0.075-0.215-0.127l-8.75-8.75c-0.117-0.13-0.176-0.28-0.176-0.449c0-0.169,0.059-0.319,0.176-0.449l8.75-8.75
            c0.13-0.117,0.28-0.176,0.449-0.176c0.169,0,0.319,0.059,0.449,0.176C16.677,3.098,16.736,3.248,16.736,3.417z"/>
        </symbol>

        <symbol id="crta_dole" viewBox="0 0 24 24">
            <path fill-rule="evenodd" d="M11.875,2.755c0.169,0,0.315,0.062,0.439,0.186C12.438,3.064,12.5,3.211,12.5,3.38v15.996l4.551-4.57
            c0.13-0.117,0.28-0.176,0.449-0.176c0.169,0,0.319,0.059,0.449,0.176c0.117,0.13,0.176,0.28,0.176,0.449
            c0,0.169-0.059,0.319-0.176,0.449l-5.625,5.625c-0.039,0.026-0.075,0.049-0.107,0.068c-0.033,0.02-0.068,0.042-0.107,0.068
            c-0.039,0.013-0.078,0.022-0.117,0.029c-0.039,0.006-0.078,0.01-0.117,0.01s-0.078-0.003-0.117-0.01
            c-0.039-0.007-0.078-0.017-0.117-0.029c-0.039-0.026-0.075-0.049-0.107-0.068c-0.033-0.02-0.068-0.042-0.107-0.068l-5.625-5.625
            c-0.117-0.13-0.176-0.28-0.176-0.449c0-0.169,0.059-0.319,0.176-0.449c0.13-0.117,0.28-0.176,0.449-0.176
            c0.169,0,0.319,0.059,0.449,0.176l4.551,4.57V3.38c0-0.169,0.062-0.315,0.186-0.439C11.559,2.817,11.705,2.755,11.875,2.755z"/>
        </symbol>

        <symbol id="crta_dore" viewBox="0 0 24 24">
            <path fill-rule="evenodd" d="M11.791,21.505c-0.169,0-0.316-0.062-0.439-0.186c-0.124-0.124-0.186-0.271-0.186-0.439V4.883l-4.551,4.57
            C6.485,9.571,6.335,9.63,6.166,9.63c-0.169,0-0.319-0.059-0.449-0.176C5.6,9.324,5.541,9.174,5.541,9.005
            c0-0.169,0.059-0.319,0.176-0.449l5.625-5.625c0.039-0.026,0.075-0.049,0.107-0.068c0.032-0.02,0.068-0.042,0.107-0.068
            c0.078-0.026,0.156-0.039,0.234-0.039s0.156,0.013,0.234,0.039c0.039,0.026,0.075,0.049,0.107,0.068
            c0.032,0.02,0.068,0.042,0.107,0.068l5.625,5.625c0.117,0.13,0.176,0.28,0.176,0.449c0,0.169-0.059,0.319-0.176,0.449
            c-0.065,0.052-0.137,0.095-0.215,0.127c-0.078,0.033-0.156,0.049-0.234,0.049s-0.156-0.016-0.234-0.049
            c-0.078-0.032-0.15-0.075-0.215-0.127l-4.551-4.57V20.88c0,0.169-0.062,0.315-0.186,0.439
            C12.107,21.443,11.96,21.505,11.791,21.505z"/>
            </symbol>

        <symbol id="crta_desno" viewBox="0 0 24 24">
            <path fill-rule="evenodd" d="M2.444,12.13c0-0.169,0.062-0.315,0.186-0.439c0.124-0.124,0.27-0.186,0.439-0.186h15.996l-4.57-4.551
            c-0.117-0.13-0.176-0.28-0.176-0.449c0-0.169,0.059-0.319,0.176-0.449c0.13-0.117,0.28-0.176,0.449-0.176
            c0.169,0,0.319,0.059,0.449,0.176l5.625,5.625c0.026,0.039,0.049,0.075,0.068,0.107c0.02,0.033,0.042,0.068,0.068,0.107
            c0.026,0.078,0.039,0.156,0.039,0.234s-0.013,0.156-0.039,0.234c-0.026,0.039-0.049,0.075-0.068,0.107
            c-0.02,0.033-0.042,0.068-0.068,0.107l-5.625,5.625c-0.065,0.052-0.137,0.095-0.215,0.127c-0.078,0.033-0.156,0.049-0.234,0.049
            s-0.156-0.016-0.234-0.049c-0.078-0.032-0.15-0.075-0.215-0.127c-0.117-0.13-0.176-0.28-0.176-0.449
            c0-0.169,0.059-0.319,0.176-0.449l4.57-4.551H3.069c-0.169,0-0.316-0.062-0.439-0.186C2.506,12.445,2.444,12.299,2.444,12.13z"/>
        </symbol>

        <symbol id="crta_lijevo" viewBox="0 0 24 24">
            <path fill-rule="evenodd" d="M21.036,12.569c-0.124,0.124-0.271,0.186-0.439,0.186H4.601l4.57,4.551c0.117,0.13,0.176,0.28,0.176,0.449
            c0,0.169-0.059,0.319-0.176,0.449c-0.065,0.052-0.137,0.095-0.215,0.127C8.878,18.363,8.8,18.38,8.722,18.38
            s-0.156-0.016-0.234-0.049c-0.078-0.032-0.15-0.075-0.215-0.127l-5.625-5.625c-0.026-0.039-0.049-0.075-0.068-0.107
            c-0.02-0.032-0.042-0.068-0.068-0.107c-0.026-0.078-0.039-0.156-0.039-0.234s0.013-0.156,0.039-0.234
            c0.026-0.039,0.049-0.075,0.068-0.107c0.02-0.032,0.042-0.068,0.068-0.107l5.625-5.625c0.13-0.117,0.28-0.176,0.449-0.176
            c0.169,0,0.319,0.059,0.449,0.176c0.117,0.13,0.176,0.28,0.176,0.449c0,0.169-0.059,0.319-0.176,0.449l-4.57,4.551h15.996
            c0.169,0,0.315,0.062,0.439,0.186c0.124,0.124,0.186,0.271,0.186,0.439C21.222,12.299,21.16,12.445,21.036,12.569z"/>
        </symbol>

        <symbol id="crta_desno_kraj" viewBox="0 0 24 24">
            <path fill-rule="evenodd" d="M15.204,12.755H2.333c-0.17,0-0.316-0.062-0.439-0.186c-0.124-0.124-0.186-0.27-0.186-0.439
            c0-0.169,0.062-0.315,0.186-0.439c0.123-0.124,0.27-0.186,0.439-0.186h12.871l-4.57-4.551c-0.117-0.13-0.176-0.28-0.176-0.449
            c0-0.169,0.059-0.319,0.176-0.449c0.13-0.117,0.279-0.176,0.449-0.176c0.169,0,0.318,0.059,0.449,0.176l5.625,5.625
            c0.025,0.039,0.049,0.075,0.068,0.107c0.02,0.033,0.042,0.068,0.068,0.107c0.025,0.078,0.039,0.156,0.039,0.234
            s-0.014,0.156-0.039,0.234c-0.026,0.039-0.049,0.075-0.068,0.107c-0.02,0.033-0.043,0.068-0.068,0.107l-5.625,5.625
            c-0.065,0.052-0.137,0.095-0.215,0.127c-0.078,0.033-0.156,0.049-0.234,0.049s-0.156-0.016-0.234-0.049
            c-0.078-0.032-0.15-0.075-0.215-0.127c-0.117-0.13-0.176-0.28-0.176-0.449c0-0.169,0.059-0.319,0.176-0.449L15.204,12.755z
             M20.898,2.94c0.123,0.124,0.186,0.271,0.186,0.439v17.5c0,0.169-0.063,0.315-0.186,0.439c-0.124,0.124-0.271,0.186-0.439,0.186
            c-0.17,0-0.316-0.062-0.439-0.186c-0.124-0.124-0.186-0.271-0.186-0.439V3.38c0-0.169,0.062-0.315,0.186-0.439
            c0.123-0.124,0.27-0.186,0.439-0.186C20.627,2.755,20.774,2.817,20.898,2.94z"/>
        </symbol>

        <symbol id="crta_lijevo_kraj" viewBox="0 0 24 24">
            <path fill-rule="evenodd" d="M2.491,21.319c-0.124-0.124-0.186-0.271-0.186-0.439V3.38c0-0.169,0.062-0.315,0.186-0.439
                C2.615,2.817,2.761,2.755,2.93,2.755S3.245,2.817,3.369,2.94C3.493,3.064,3.555,3.211,3.555,3.38v17.5
                c0,0.169-0.062,0.315-0.186,0.439c-0.124,0.124-0.271,0.186-0.439,0.186S2.615,21.443,2.491,21.319z M21.055,11.505
                c0.169,0,0.315,0.062,0.439,0.186c0.124,0.124,0.186,0.271,0.186,0.439c0,0.169-0.062,0.316-0.186,0.439
                c-0.124,0.124-0.271,0.186-0.439,0.186H8.184l4.57,4.551c0.117,0.13,0.176,0.28,0.176,0.449c0,0.169-0.059,0.319-0.176,0.449
                c-0.065,0.052-0.137,0.095-0.215,0.127c-0.078,0.033-0.156,0.049-0.234,0.049s-0.156-0.016-0.234-0.049
                c-0.078-0.032-0.149-0.075-0.215-0.127l-5.625-5.625c-0.026-0.039-0.049-0.075-0.068-0.107c-0.02-0.032-0.042-0.068-0.068-0.107
                c-0.026-0.078-0.039-0.156-0.039-0.234s0.013-0.156,0.039-0.234c0.026-0.039,0.049-0.075,0.068-0.107
                c0.02-0.032,0.042-0.068,0.068-0.107l5.625-5.625c0.13-0.117,0.28-0.176,0.449-0.176s0.319,0.059,0.449,0.176
                c0.117,0.13,0.176,0.28,0.176,0.449c0,0.169-0.059,0.319-0.176,0.449l-4.57,4.551H21.055z"/>
        </symbol>

        <symbol id="korisnik" viewBox="0 0 24 24">
            <path d="M4.023,22.167h-1.25v-0.625c0-1.042,0.163-2.034,0.488-2.979c0.325-0.944,0.778-1.807,1.357-2.588
            c0.579-0.781,1.266-1.458,2.061-2.031c0.794-0.573,1.66-1.016,2.598-1.328c-0.82-0.481-1.484-1.149-1.992-2.002
            C6.777,9.761,6.523,8.82,6.523,7.792c0-0.781,0.146-1.51,0.439-2.188c0.293-0.677,0.696-1.272,1.211-1.787
            c0.514-0.514,1.11-0.918,1.787-1.211c0.677-0.293,1.406-0.439,2.188-0.439s1.51,0.146,2.188,0.439
            c0.677,0.293,1.272,0.697,1.787,1.211c0.514,0.515,0.918,1.11,1.211,1.787c0.293,0.677,0.439,1.406,0.439,2.188
            c0,1.029-0.254,1.97-0.762,2.822c-0.508,0.853-1.172,1.521-1.992,2.002c0.938,0.313,1.803,0.755,2.598,1.328
            c0.794,0.573,1.481,1.25,2.061,2.031c0.579,0.781,1.032,1.644,1.357,2.588c0.325,0.944,0.488,1.937,0.488,2.979v0.625h-1.25v-0.625
            c0-1.12-0.212-2.174-0.635-3.164c-0.423-0.989-1.003-1.852-1.738-2.588c-0.736-0.735-1.599-1.315-2.588-1.738
            c-0.99-0.423-2.044-0.635-3.164-0.635c-1.12,0-2.175,0.212-3.164,0.635c-0.99,0.423-1.853,1.003-2.588,1.738
            c-0.736,0.736-1.315,1.599-1.738,2.588c-0.423,0.99-0.635,2.044-0.635,3.164V22.167z M8.115,9.491c0.228,0.534,0.54,1,0.938,1.396
            c0.397,0.397,0.862,0.71,1.396,0.938c0.534,0.228,1.1,0.342,1.699,0.342c0.599,0,1.165-0.114,1.699-0.342
            c0.534-0.228,0.999-0.54,1.396-0.938c0.397-0.397,0.709-0.862,0.938-1.396c0.228-0.534,0.342-1.1,0.342-1.699
            c0-0.599-0.114-1.165-0.342-1.699c-0.228-0.534-0.541-0.999-0.938-1.396c-0.397-0.397-0.863-0.709-1.396-0.937
            c-0.534-0.228-1.101-0.342-1.699-0.342c-0.599,0-1.166,0.114-1.699,0.342c-0.534,0.228-1,0.541-1.396,0.937
            c-0.397,0.397-0.71,0.863-0.938,1.396C7.887,6.627,7.773,7.193,7.773,7.792C7.773,8.391,7.887,8.957,8.115,9.491z"/>
        </symbol>

        <symbol id="kosarica" viewBox="0 0 24 24">
            <path d="M19.884,21.897c-0.124,0.124-0.271,0.186-0.439,0.186h-15c-0.169,0-0.315-0.062-0.439-0.186
            c-0.124-0.124-0.186-0.271-0.186-0.439v-15c0-0.169,0.062-0.315,0.186-0.439c0.124-0.124,0.271-0.186,0.439-0.186h3.75
            c0-1.028,0.368-1.911,1.104-2.646c0.735-0.735,1.618-1.104,2.646-1.104s1.911,0.368,2.646,1.104
            c0.735,0.736,1.104,1.618,1.104,2.646h3.75c0.169,0,0.315,0.062,0.439,0.186c0.124,0.124,0.186,0.271,0.186,0.439v15
            C20.069,21.627,20.008,21.773,19.884,21.897z M18.819,7.083h-3.125v2.5c0,0.169-0.062,0.316-0.186,0.439
            c-0.124,0.124-0.271,0.186-0.439,0.186s-0.315-0.062-0.439-0.186c-0.124-0.124-0.186-0.27-0.186-0.439v-2.5h-5v2.5
            c0,0.169-0.062,0.316-0.186,0.439c-0.124,0.124-0.271,0.186-0.439,0.186s-0.315-0.062-0.439-0.186
            c-0.124-0.124-0.186-0.27-0.186-0.439v-2.5H5.069v13.75h13.75V7.083z M10.177,4.065C9.688,4.554,9.444,5.143,9.444,5.833h5
            c0-0.69-0.244-1.279-0.732-1.768s-1.077-0.732-1.768-0.732S10.665,3.577,10.177,4.065z"/>
        </symbol>

        <symbol id="favoriti" viewBox="0 0 24 24">
            <path d="M21.486,6.599c-0.286-0.696-0.703-1.318-1.25-1.865c-0.56-0.56-1.191-0.979-1.895-1.26s-1.423-0.42-2.158-0.42
            s-1.458,0.14-2.168,0.42s-1.345,0.7-1.904,1.26c-0.026,0.039-0.056,0.075-0.088,0.107s-0.068,0.068-0.107,0.107
            c-0.039-0.039-0.075-0.075-0.107-0.107s-0.062-0.068-0.088-0.107c-0.56-0.56-1.194-0.979-1.904-1.26s-1.433-0.42-2.168-0.42
            s-1.455,0.14-2.158,0.42s-1.335,0.7-1.895,1.26C3.049,5.28,2.632,5.902,2.346,6.599s-0.43,1.429-0.43,2.197s0.144,1.501,0.43,2.197
            s0.703,1.318,1.25,1.865l7.871,7.871c0.003,0.003,0.007,0.004,0.011,0.006l0.439,0.436l0.439-0.437
            c0.003-0.002,0.007-0.003,0.01-0.006l7.871-7.871c0.547-0.547,0.964-1.169,1.25-1.865s0.43-1.429,0.43-2.197
            S21.772,7.295,21.486,6.599z M20.324,10.515c-0.228,0.547-0.55,1.028-0.967,1.445l-7.441,7.441L4.475,11.96
            c-0.417-0.417-0.739-0.898-0.967-1.445s-0.342-1.12-0.342-1.719S3.28,7.624,3.508,7.077s0.55-1.035,0.967-1.465
            c0.442-0.43,0.94-0.755,1.494-0.977s1.116-0.332,1.689-0.332s1.136,0.11,1.689,0.332s1.045,0.547,1.475,0.977
            c0.104,0.104,0.205,0.215,0.303,0.332s0.186,0.241,0.264,0.371c0.117,0.169,0.293,0.254,0.527,0.254s0.41-0.085,0.527-0.254
            c0.078-0.13,0.166-0.254,0.264-0.371s0.198-0.228,0.303-0.332c0.43-0.43,0.921-0.755,1.475-0.977s1.116-0.332,1.689-0.332
            s1.136,0.11,1.689,0.332s1.052,0.547,1.494,0.977c0.417,0.43,0.739,0.918,0.967,1.465s0.342,1.12,0.342,1.719
            S20.552,9.968,20.324,10.515z"/>
        </symbol>

        <symbol id="favoriti_puno" viewBox="0 0 24 24">
            <path d="M21.861,6.568c-0.286-0.696-0.703-1.318-1.25-1.865c-0.56-0.56-1.191-0.979-1.895-1.26s-1.423-0.42-2.158-0.42
            s-1.458,0.14-2.168,0.42s-1.345,0.7-1.904,1.26c-0.026,0.039-0.056,0.075-0.088,0.107s-0.068,0.068-0.107,0.107
            c-0.039-0.039-0.075-0.075-0.107-0.107s-0.062-0.068-0.088-0.107c-0.56-0.56-1.194-0.979-1.904-1.26s-1.433-0.42-2.168-0.42
            s-1.455,0.14-2.158,0.42s-1.335,0.7-1.895,1.26C3.424,5.25,3.007,5.872,2.721,6.568s-0.43,1.429-0.43,2.197s0.144,1.501,0.43,2.197
            s0.703,1.318,1.25,1.865l7.871,7.871c0.003,0.003,0.007,0.004,0.011,0.006l0.439,0.436l0.439-0.437
            c0.003-0.002,0.007-0.003,0.01-0.006l7.871-7.871c0.547-0.547,0.964-1.169,1.25-1.865s0.43-1.429,0.43-2.197
            S22.147,7.265,21.861,6.568z"/>
        </symbol>

        <symbol id="izbrisi" viewBox="0 0 24 24">
            <path d="M4.741,21.654c-0.124-0.124-0.186-0.271-0.186-0.439v-15h-1.25c-0.169,0-0.316-0.062-0.439-0.186
            C2.742,5.906,2.68,5.76,2.68,5.59c0-0.169,0.062-0.315,0.186-0.439c0.124-0.123,0.27-0.186,0.439-0.186h5v-2.5
            c0-0.169,0.062-0.315,0.186-0.439C8.614,1.902,8.761,1.84,8.93,1.84h6.25c0.169,0,0.315,0.063,0.439,0.186
            c0.124,0.124,0.186,0.271,0.186,0.439v2.5h5c0.169,0,0.315,0.063,0.439,0.186c0.124,0.124,0.186,0.271,0.186,0.439
            c0,0.17-0.062,0.316-0.186,0.439c-0.124,0.124-0.271,0.186-0.439,0.186h-1.25v15c0,0.169-0.062,0.315-0.186,0.439
            c-0.124,0.124-0.271,0.186-0.439,0.186H5.18C5.011,21.84,4.864,21.778,4.741,21.654z M18.305,6.215h-12.5V20.59h12.5V6.215z
             M9.37,9.525c0.124,0.124,0.186,0.271,0.186,0.439v6.875c0,0.17-0.062,0.316-0.186,0.439c-0.124,0.124-0.271,0.186-0.439,0.186
            c-0.169,0-0.316-0.062-0.439-0.186c-0.124-0.123-0.186-0.27-0.186-0.439V9.965c0-0.169,0.062-0.315,0.186-0.439
            C8.614,9.402,8.761,9.34,8.93,9.34C9.099,9.34,9.246,9.402,9.37,9.525z M9.555,4.965h5V3.09h-5V4.965z M12.495,9.525
            c0.124,0.124,0.186,0.271,0.186,0.439v6.875c0,0.17-0.062,0.316-0.186,0.439c-0.124,0.124-0.271,0.186-0.439,0.186
            c-0.169,0-0.316-0.062-0.439-0.186c-0.124-0.123-0.186-0.27-0.186-0.439V9.965c0-0.169,0.062-0.315,0.186-0.439
            c0.124-0.123,0.27-0.186,0.439-0.186C12.224,9.34,12.371,9.402,12.495,9.525z M14.741,9.525c0.124-0.123,0.27-0.186,0.439-0.186
            c0.169,0,0.315,0.063,0.439,0.186c0.124,0.124,0.186,0.271,0.186,0.439v6.875c0,0.17-0.062,0.316-0.186,0.439
            c-0.124,0.124-0.271,0.186-0.439,0.186c-0.169,0-0.316-0.062-0.439-0.186c-0.124-0.123-0.186-0.27-0.186-0.439V9.965
            C14.555,9.796,14.617,9.649,14.741,9.525z"/>
        </symbol>

        <symbol id="hamburger" viewBox="0 0 24 24" stroke="black" stroke-width="0.5">
            <path d="M0 0H17V1.19325H0V0ZM0 5.40338H17V6.59662H0V5.40338ZM0 10.8068H7V12H0V10.8068Z"/>
            <path d="M18.3253 9.523C18.7251 9.69088 19.1056 9.8975 19.4667 10.1429C19.8279 10.3753 20.1568 10.6465 20.4534 10.9564C20.763 11.2534 21.0339 11.5827 21.266 11.9443C21.5111 12.3059 21.7175 12.6868 21.8851 13.0872C22.0657 13.5004 22.1947 13.9266 22.2721 14.3656C22.3624 14.7918 22.4075 15.2373 22.4075 15.7022C22.4075 16.1154 22.3688 16.5222 22.2914 16.9225C22.2269 17.3099 22.1237 17.6909 21.9819 18.0654C21.84 18.4399 21.6659 18.795 21.4595 19.1308C21.266 19.4665 21.0468 19.7764 20.8017 20.0605L23.8452 23.109C23.8968 23.1606 23.9355 23.2187 23.9613 23.2833C23.9871 23.3479 24 23.4124 24 23.477C24 23.5545 23.9871 23.6255 23.9613 23.6901C23.9355 23.7417 23.8968 23.7998 23.8452 23.8644C23.8194 23.8773 23.7936 23.8967 23.7678 23.9225C23.742 23.9354 23.7098 23.9483 23.6711 23.9613C23.6453 23.9742 23.6131 23.9871 23.5744 24C23.5486 24 23.5163 24 23.4776 24C23.4518 24 23.4196 24 23.3809 24C23.3551 23.9871 23.3229 23.9742 23.2842 23.9613C23.2584 23.9483 23.2261 23.9354 23.1874 23.9225C23.1616 23.8967 23.1358 23.8773 23.11 23.8644L20.0665 20.7966C19.7699 21.0549 19.4538 21.2809 19.1185 21.4746C18.7961 21.6683 18.4478 21.8362 18.0738 21.9782C17.6997 22.1332 17.3128 22.2494 16.9129 22.3269C16.526 22.3914 16.1262 22.4237 15.7134 22.4237C15.2491 22.4237 14.7977 22.3785 14.3591 22.2881C13.9206 22.1977 13.5014 22.0686 13.1016 21.9007C12.6888 21.7199 12.3019 21.5133 11.9407 21.2809C11.5925 21.0355 11.2636 20.7643 10.9541 20.4673C10.6574 20.1574 10.3865 19.8281 10.1415 19.4794C9.90931 19.1178 9.70294 18.7304 9.52237 18.3172C9.3547 17.9169 9.22572 17.4972 9.13543 17.0581C9.04514 16.619 9 16.1671 9 15.7022C9 15.2373 9.04514 14.7918 9.13543 14.3656C9.22572 13.9266 9.3547 13.5004 9.52237 13.0872C9.70294 12.6868 9.90931 12.3059 10.1415 11.9443C10.3865 11.5827 10.6574 11.2534 10.9541 10.9564C11.2636 10.6465 11.5925 10.3753 11.9407 10.1429C12.3019 9.8975 12.6888 9.69088 13.1016 9.523C13.5014 9.34221 13.9206 9.21308 14.3591 9.13559C14.7977 9.0452 15.2491 9 15.7134 9C16.1778 9 16.6227 9.0452 17.0484 9.13559C17.4869 9.21308 17.9125 9.34221 18.3253 9.523ZM10.4704 17.9104C10.6252 18.2591 10.7993 18.5884 10.9927 18.8983C11.1991 19.1953 11.4313 19.473 11.6892 19.7312C11.9472 19.9895 12.2245 20.222 12.5212 20.4286C12.8307 20.6223 13.1596 20.7966 13.5079 20.9516C13.8432 21.0936 14.1915 21.2034 14.5526 21.2809C14.9266 21.3584 15.3136 21.3971 15.7134 21.3971C16.1004 21.3971 16.4744 21.3584 16.8356 21.2809C17.2096 21.2034 17.5707 21.0936 17.919 20.9516C18.2672 20.7966 18.5897 20.6223 18.8863 20.4286C19.183 20.222 19.4603 19.9895 19.7183 19.7312C19.9762 19.473 20.2084 19.1953 20.4148 18.8983C20.6211 18.5884 20.7952 18.2591 20.9371 17.9104C21.0919 17.5747 21.2015 17.226 21.266 16.8644C21.3434 16.4899 21.3821 16.1025 21.3821 15.7022C21.3821 15.3148 21.3434 14.9403 21.266 14.5787C21.2015 14.2042 21.0919 13.8426 20.9371 13.4939C20.7952 13.1453 20.6211 12.8224 20.4148 12.5254C20.2084 12.2284 19.9762 11.9508 19.7183 11.6925C19.4603 11.4342 19.183 11.2018 18.8863 10.9952C18.5897 10.7885 18.2672 10.6142 17.919 10.4722C17.5707 10.3172 17.2096 10.2074 16.8356 10.1429C16.4744 10.0654 16.1004 10.0266 15.7134 10.0266C15.3136 10.0266 14.9266 10.0654 14.5526 10.1429C14.1915 10.2074 13.8432 10.3172 13.5079 10.4722C13.1596 10.6142 12.8307 10.7885 12.5212 10.9952C12.2245 11.2018 11.9472 11.4342 11.6892 11.6925C11.4313 11.9508 11.1991 12.2284 10.9927 12.5254C10.7993 12.8224 10.6252 13.1453 10.4704 13.4939C10.3285 13.8426 10.2189 14.2042 10.1415 14.5787C10.0641 14.9403 10.0254 15.3148 10.0254 15.7022C10.0254 16.1025 10.0641 16.4899 10.1415 16.8644C10.2189 17.226 10.3285 17.5747 10.4704 17.9104Z"/>
        </symbol>

        <symbol id="zatvori" viewBox="0 0 24 24" stroke="black" stroke-width="0.5">
            <path d="M19.583,4.965c0,0.17-0.059,0.319-0.176,0.449l-6.445,6.426l6.445,6.426c0.117,0.131,0.176,0.28,0.176,0.449
            c0,0.17-0.059,0.319-0.176,0.449c-0.065,0.053-0.137,0.095-0.215,0.127c-0.078,0.033-0.156,0.049-0.234,0.049
            s-0.156-0.016-0.234-0.049c-0.078-0.032-0.15-0.074-0.215-0.127l-6.426-6.445l-6.426,6.445c-0.065,0.053-0.137,0.095-0.215,0.127
            c-0.078,0.033-0.156,0.049-0.234,0.049s-0.156-0.016-0.234-0.049c-0.078-0.032-0.15-0.074-0.215-0.127
            c-0.117-0.13-0.176-0.279-0.176-0.449c0-0.169,0.059-0.318,0.176-0.449l6.445-6.426L4.759,5.414
            c-0.117-0.13-0.176-0.279-0.176-0.449c0-0.169,0.059-0.318,0.176-0.449c0.13-0.117,0.28-0.176,0.449-0.176
            c0.169,0,0.319,0.059,0.449,0.176l6.426,6.445l6.426-6.445c0.13-0.117,0.28-0.176,0.449-0.176c0.169,0,0.319,0.059,0.449,0.176
            C19.524,4.646,19.583,4.796,19.583,4.965z"/>
        </symbol>

        <symbol id="trazi" viewBox="0 0 24 24">
            <path d="M13.261,2.475c0.989,0.424,1.853,1.003,2.588,1.738c0.735,0.736,1.315,1.599,1.738,2.588
            c0.423,0.99,0.635,2.045,0.635,3.164c0,1.003-0.176,1.957-0.527,2.861c-0.352,0.905-0.827,1.709-1.426,2.412l4.902,4.902
            c0.117,0.131,0.176,0.28,0.176,0.449s-0.059,0.319-0.176,0.449c-0.065,0.052-0.137,0.095-0.215,0.127s-0.156,0.049-0.234,0.049
            s-0.156-0.017-0.234-0.049s-0.149-0.075-0.215-0.127l-4.902-4.902c-0.703,0.6-1.507,1.074-2.412,1.426S11.1,18.09,10.097,18.09
            c-1.12,0-2.175-0.211-3.164-0.635c-0.989-0.423-1.853-1.002-2.588-1.738c-0.735-0.735-1.315-1.598-1.738-2.588
            c-0.423-0.989-0.635-2.044-0.635-3.164c0-1.119,0.212-2.174,0.635-3.164c0.423-0.989,1.003-1.852,1.738-2.588
            C5.08,3.478,5.943,2.898,6.933,2.475C7.922,2.052,8.977,1.84,10.097,1.84S12.271,2.052,13.261,2.475z M3.759,12.641
            c0.358,0.834,0.85,1.563,1.475,2.188s1.354,1.117,2.188,1.475c0.833,0.358,1.726,0.537,2.676,0.537s1.843-0.179,2.676-0.537
            c0.833-0.357,1.563-0.85,2.188-1.475s1.116-1.354,1.475-2.188c0.358-0.833,0.537-1.725,0.537-2.676c0-0.95-0.179-1.842-0.537-2.676
            c-0.358-0.833-0.85-1.563-1.475-2.188s-1.354-1.116-2.188-1.475C11.939,3.27,11.047,3.09,10.097,3.09S8.254,3.27,7.421,3.627
            c-0.833,0.358-1.563,0.85-2.188,1.475S4.117,6.456,3.759,7.289C3.4,8.123,3.222,9.015,3.222,9.965
            C3.222,10.916,3.4,11.808,3.759,12.641z"/>
        </symbol>

        <symbol id="uredi" viewBox="0 0 24 24">
            <path d="M2.874,21.283c-0.078,0-0.156-0.017-0.234-0.049c-0.078-0.033-0.149-0.075-0.215-0.127
		c-0.065-0.078-0.114-0.163-0.146-0.254c-0.032-0.092-0.042-0.183-0.029-0.273l0.625-5c0-0.013,0.003-0.029,0.01-0.049
		s0.017-0.036,0.029-0.049c0-0.013,0.003-0.026,0.01-0.039s0.01-0.026,0.01-0.039c0.013-0.039,0.029-0.075,0.049-0.107
		s0.042-0.062,0.068-0.088l12.5-12.5c0.13-0.117,0.28-0.176,0.449-0.176c0.169,0,0.319,0.059,0.449,0.176l4.375,4.375
		c0.117,0.13,0.176,0.28,0.176,0.449s-0.059,0.319-0.176,0.449l-12.5,12.5c-0.026,0.026-0.056,0.049-0.088,0.068
		s-0.068,0.036-0.107,0.049c-0.013,0.013-0.026,0.02-0.039,0.02s-0.026,0-0.039,0c-0.013,0.013-0.029,0.022-0.049,0.029
		c-0.02,0.007-0.036,0.01-0.049,0.01l-5,0.625c-0.013,0-0.026,0-0.039,0S2.887,21.283,2.874,21.283z M3.968,17.006l-0.371,2.93
		l2.93-0.371L3.968,17.006z M4.378,15.658l1.309,1.309l9.121-9.121l-1.309-1.309L4.378,15.658z M7.874,19.154l9.121-9.121
		l-1.309-1.309l-9.121,9.121L7.874,19.154z M14.378,5.658l3.496,3.496l1.621-1.621l-3.496-3.496L14.378,5.658z"/>
        </symbol>

        <symbol id="telefon" viewBox="0 0 24 24">
            <path d="M17.625,21.729c-2.148,0-4.174-0.41-6.074-1.23c-1.901-0.82-3.559-1.937-4.971-3.35c-1.413-1.413-2.529-3.069-3.35-4.971
            S2,8.253,2,6.104C2,6.026,2.016,5.948,2.049,5.87c0.032-0.078,0.074-0.149,0.127-0.215L5.301,2.53
            C5.431,2.413,5.58,2.354,5.75,2.354c0.169,0,0.318,0.059,0.449,0.176l4.375,4.375c0.117,0.13,0.176,0.28,0.176,0.449
            s-0.059,0.319-0.176,0.449l-2.695,2.676l5.371,5.371l2.676-2.695c0.13-0.117,0.279-0.176,0.449-0.176
            c0.169,0,0.318,0.059,0.449,0.176l4.375,4.375c0.117,0.13,0.176,0.28,0.176,0.449s-0.059,0.319-0.176,0.449l-3.125,3.125
            c-0.065,0.052-0.137,0.094-0.215,0.127C17.781,21.713,17.703,21.729,17.625,21.729z M5.75,3.858l-2.5,2.5
            c0.039,1.927,0.433,3.74,1.182,5.439c0.748,1.699,1.761,3.187,3.037,4.463c1.275,1.276,2.764,2.288,4.463,3.037
            s3.512,1.143,5.439,1.182l2.5-2.5l-3.496-3.496l-2.676,2.695c-0.131,0.117-0.28,0.176-0.449,0.176c-0.17,0-0.319-0.059-0.449-0.176
            l-6.25-6.25c-0.117-0.13-0.176-0.28-0.176-0.449s0.059-0.319,0.176-0.449l2.695-2.676L5.75,3.858z"/>
        </symbol>

        <symbol id="vrijeme" viewBox="0 0 24 24">
            <path d="M16.053,3.083c1.211,0.527,2.269,1.244,3.174,2.148c0.905,0.905,1.621,1.963,2.148,3.174s0.791,2.507,0.791,3.887
            c0,1.38-0.264,2.676-0.791,3.887s-1.244,2.269-2.148,3.174c-0.905,0.905-1.963,1.621-3.174,2.148s-2.507,0.791-3.887,0.791
            c-1.38,0-2.676-0.264-3.887-0.791s-2.269-1.243-3.174-2.148c-0.905-0.905-1.621-1.963-2.148-3.174s-0.791-2.506-0.791-3.887
            c0-1.38,0.264-2.676,0.791-3.887s1.243-2.269,2.148-3.174C6.011,4.326,7.069,3.61,8.28,3.083s2.506-0.791,3.887-0.791
            C13.547,2.292,14.842,2.555,16.053,3.083z M12.792,21.003c1.081-0.078,2.096-0.338,3.047-0.781c0.95-0.442,1.787-1.025,2.51-1.748
            s1.305-1.559,1.748-2.51c0.442-0.95,0.703-1.966,0.781-3.047h-2.461c-0.169,0-0.316-0.062-0.439-0.186
            c-0.124-0.124-0.186-0.27-0.186-0.439c0-0.169,0.062-0.315,0.186-0.439c0.124-0.124,0.27-0.186,0.439-0.186h2.461
            c-0.078-1.081-0.339-2.096-0.781-3.047c-0.443-0.95-1.025-1.787-1.748-2.51s-1.56-1.305-2.51-1.748
            c-0.951-0.442-1.966-0.703-3.047-0.781v2.461c0,0.169-0.062,0.316-0.186,0.439c-0.124,0.124-0.271,0.186-0.439,0.186
            c-0.169,0-0.316-0.062-0.439-0.186c-0.124-0.124-0.186-0.27-0.186-0.439V3.581C10.461,3.659,9.445,3.92,8.495,4.362
            C7.544,4.805,6.708,5.387,5.985,6.11S4.679,7.67,4.237,8.62c-0.443,0.951-0.703,1.966-0.781,3.047h2.461
            c0.169,0,0.315,0.062,0.439,0.186c0.124,0.124,0.186,0.271,0.186,0.439c0,0.169-0.062,0.316-0.186,0.439
            c-0.124,0.124-0.271,0.186-0.439,0.186H3.456c0.078,1.081,0.338,2.097,0.781,3.047c0.442,0.951,1.025,1.787,1.748,2.51
            s1.559,1.306,2.51,1.748c0.95,0.443,1.966,0.703,3.047,0.781v-2.461c0-0.169,0.062-0.315,0.186-0.439
            c0.124-0.124,0.27-0.186,0.439-0.186c0.169,0,0.315,0.062,0.439,0.186c0.124,0.124,0.186,0.271,0.186,0.439V21.003z M16.356,11.852
            c0.124,0.124,0.186,0.271,0.186,0.439c0,0.169-0.062,0.316-0.186,0.439c-0.124,0.124-0.271,0.186-0.439,0.186h-3.75
            c-0.104,0-0.199-0.022-0.283-0.068c-0.085-0.045-0.16-0.107-0.225-0.186l-3.75-5C7.804,7.533,7.765,7.38,7.792,7.204
            c0.026-0.176,0.11-0.315,0.254-0.42c0.13-0.104,0.283-0.143,0.459-0.117C8.68,6.693,8.82,6.778,8.924,6.921l3.555,4.746h3.438
            C16.086,11.667,16.232,11.729,16.356,11.852z"/>
        </symbol>

        <symbol id="email" viewBox="0 0 24 24">
            <path d="M22.072,4.807c0.013,0.026,0.02,0.049,0.02,0.068s0,0.043,0,0.068c0.013,0.026,0.02,0.046,0.02,0.059v13.75
            c0,0.17-0.062,0.316-0.186,0.439c-0.124,0.124-0.271,0.186-0.439,0.186H2.736c-0.169,0-0.316-0.062-0.439-0.186
            c-0.124-0.123-0.186-0.27-0.186-0.439V5.002c0-0.013,0.006-0.032,0.02-0.059c0-0.025,0-0.049,0-0.068s0.006-0.042,0.02-0.068
            c0.013-0.013,0.022-0.029,0.029-0.049c0.006-0.02,0.016-0.042,0.029-0.068c0.013-0.025,0.02-0.045,0.02-0.059
            c0.013,0,0.022-0.003,0.029-0.01c0.006-0.006,0.01-0.016,0.01-0.029C2.28,4.579,2.293,4.566,2.306,4.553
            C2.319,4.54,2.338,4.527,2.365,4.514c0.013-0.013,0.026-0.025,0.039-0.039c0.013-0.013,0.032-0.02,0.059-0.02
            c0.013-0.013,0.029-0.022,0.049-0.029c0.02-0.006,0.036-0.01,0.049-0.01c0.026-0.013,0.049-0.02,0.068-0.02s0.042-0.006,0.068-0.02
            c0.013,0,0.026,0,0.039,0h18.75c0.013,0,0.026,0,0.039,0c0.026,0.014,0.049,0.02,0.068,0.02s0.042,0.007,0.068,0.02
            c0.013,0,0.029,0.004,0.049,0.01c0.02,0.007,0.036,0.017,0.049,0.029c0.026,0,0.045,0.007,0.059,0.02
            c0.013,0.014,0.026,0.026,0.039,0.039c0.026,0.014,0.045,0.026,0.059,0.039c0.013,0.014,0.026,0.026,0.039,0.039
            c0,0.014,0.003,0.023,0.01,0.029c0.006,0.007,0.016,0.01,0.029,0.01c0,0.014,0.006,0.033,0.02,0.059
            c0.013,0.026,0.026,0.049,0.039,0.068C22.065,4.777,22.072,4.794,22.072,4.807z M20.861,18.127V6.232l-8.379,6.152
            c-0.052,0.039-0.111,0.068-0.176,0.088c-0.065,0.02-0.13,0.029-0.195,0.029c-0.065,0-0.13-0.01-0.195-0.029
            c-0.065-0.02-0.124-0.049-0.176-0.088L3.361,6.232v11.895H20.861z M4.65,5.627l7.461,5.469l7.461-5.469H4.65z"/>
        </symbol>

        <symbol id="dostava" viewBox="0 0 24 24">
            <path d="M21.648,12.672c0.104,0.052,0.188,0.13,0.254,0.234C21.967,13.011,22,13.121,22,13.238v5c0,0.169-0.063,0.316-0.186,0.439
            c-0.124,0.124-0.271,0.186-0.439,0.186h-2.559c-0.144,0.716-0.502,1.312-1.074,1.787c-0.573,0.475-1.237,0.713-1.992,0.713
            c-0.756,0-1.42-0.238-1.992-0.713c-0.573-0.475-0.932-1.071-1.074-1.787h-1.309c-0.17,0-0.316-0.062-0.439-0.186
            c-0.124-0.124-0.186-0.27-0.186-0.439V4.488H2.625c-0.17,0-0.316-0.062-0.439-0.186C2.062,4.179,2,4.033,2,3.863
            c0-0.169,0.062-0.315,0.186-0.439C2.309,3.3,2.455,3.238,2.625,3.238h8.75c0.169,0,0.315,0.062,0.439,0.186
            C11.937,3.548,12,3.694,12,3.863v2.5h5c0.13,0,0.247,0.036,0.352,0.107c0.104,0.072,0.182,0.173,0.234,0.303l1.797,4.766
            L21.648,12.672z M9.314,9.674C9.437,9.798,9.5,9.944,9.5,10.113c0,0.169-0.063,0.316-0.186,0.439
            c-0.124,0.124-0.271,0.186-0.439,0.186h-3.75c-0.17,0-0.316-0.062-0.439-0.186C4.562,10.429,4.5,10.283,4.5,10.113
            c0-0.169,0.062-0.315,0.186-0.439c0.123-0.124,0.27-0.186,0.439-0.186h3.75C9.044,9.488,9.19,9.55,9.314,9.674z M9.314,12.799
            C9.437,12.923,9.5,13.069,9.5,13.238c0,0.169-0.063,0.316-0.186,0.439c-0.124,0.124-0.271,0.186-0.439,0.186h-2.5
            c-0.17,0-0.316-0.062-0.439-0.186c-0.124-0.124-0.186-0.27-0.186-0.439c0-0.169,0.062-0.315,0.186-0.439
            c0.123-0.124,0.27-0.186,0.439-0.186h2.5C9.044,12.613,9.19,12.675,9.314,12.799z M20.75,17.613v-3.984l-2.148-1.074
            c-0.078-0.039-0.144-0.088-0.195-0.146c-0.053-0.059-0.092-0.127-0.117-0.205l-1.719-4.59H12v10h0.684
            c0.143-0.716,0.501-1.312,1.074-1.787c0.572-0.475,1.236-0.713,1.992-0.713c0.755,0,1.419,0.238,1.992,0.713
            c0.572,0.476,0.931,1.071,1.074,1.787H20.75z M16.814,11.549C16.937,11.673,17,11.819,17,11.988c0,0.169-0.063,0.316-0.186,0.439
            c-0.124,0.124-0.271,0.186-0.439,0.186h-2.5c-0.17,0-0.316-0.062-0.439-0.186c-0.124-0.124-0.186-0.27-0.186-0.439v-2.5
            c0-0.169,0.062-0.315,0.186-0.439c0.123-0.124,0.27-0.186,0.439-0.186c0.169,0,0.315,0.062,0.439,0.186
            C14.437,9.173,14.5,9.319,14.5,9.488v1.875h1.875C16.544,11.363,16.69,11.425,16.814,11.549z M17.078,19.566
            c0.364-0.364,0.547-0.807,0.547-1.328c0-0.521-0.183-0.963-0.547-1.328c-0.365-0.364-0.808-0.547-1.328-0.547
            c-0.521,0-0.964,0.183-1.328,0.547c-0.365,0.365-0.547,0.808-0.547,1.328c0,0.521,0.182,0.964,0.547,1.328
            c0.364,0.365,0.807,0.547,1.328,0.547C16.271,20.113,16.713,19.931,17.078,19.566z"/>
        </symbol>

        <symbol id="info" viewBox="0 0 24 24">
            <path d="M14.583,16.429h-1.875v-7.5c0-0.169-0.062-0.315-0.186-0.439c-0.124-0.124-0.271-0.186-0.439-0.186h-2.5
            c-0.169,0-0.316,0.062-0.439,0.186C9.02,8.613,8.958,8.76,8.958,8.929S9.02,9.244,9.144,9.368c0.124,0.124,0.27,0.186,0.439,0.186
            h1.875v6.875H9.583c-0.169,0-0.316,0.062-0.439,0.186c-0.124,0.124-0.186,0.271-0.186,0.439s0.062,0.315,0.186,0.439
            c0.124,0.124,0.27,0.186,0.439,0.186h5c0.169,0,0.315-0.062,0.439-0.186c0.124-0.124,0.186-0.271,0.186-0.439
            s-0.062-0.315-0.186-0.439C14.898,16.49,14.752,16.429,14.583,16.429z"/>
            <path d="M21.292,7.917c-0.527-1.211-1.244-2.269-2.148-3.174c-0.905-0.905-1.963-1.621-3.174-2.148s-2.507-0.791-3.887-0.791
            c-1.38,0-2.676,0.264-3.887,0.791S5.927,3.838,5.022,4.743C4.117,5.648,3.401,6.706,2.874,7.917s-0.791,2.507-0.791,3.887
            s0.264,2.676,0.791,3.887s1.243,2.269,2.148,3.174c0.905,0.905,1.963,1.621,3.174,2.148s2.506,0.791,3.887,0.791
            c1.38,0,2.676-0.264,3.887-0.791s2.269-1.243,3.174-2.148c0.905-0.905,1.621-1.963,2.148-3.174s0.791-2.507,0.791-3.887
            S21.819,9.128,21.292,7.917z M20.14,15.212c-0.462,1.062-1.087,1.985-1.875,2.773c-0.788,0.788-1.712,1.413-2.773,1.875
            c-1.062,0.462-2.197,0.693-3.408,0.693s-2.347-0.231-3.408-0.693c-1.062-0.462-1.986-1.087-2.773-1.875
            c-0.788-0.788-1.413-1.712-1.875-2.773c-0.462-1.062-0.693-2.197-0.693-3.408s0.231-2.347,0.693-3.408
            C4.488,7.334,5.113,6.41,5.901,5.622c0.788-0.788,1.712-1.413,2.773-1.875c1.061-0.462,2.197-0.693,3.408-0.693
            s2.347,0.231,3.408,0.693c1.061,0.462,1.985,1.087,2.773,1.875c0.788,0.788,1.413,1.712,1.875,2.773
            c0.462,1.062,0.693,2.197,0.693,3.408S20.602,14.15,20.14,15.212z"/>
            <circle cx="12.083" cy="6.063" r="0.656"/>
        </symbol>

        <symbol id="facebook" viewBox="0 0 264 512">
            <path d="M76.7 512V283H0v-91h76.7v-71.7C76.7 42.4 124.3 0 193.8 0c33.3 0 61.9 2.5 70.2 3.6V85h-48.2c-37.8 0-45.1 18-45.1 44.3V192H256l-11.7 91h-73.6v229"/>
        </symbol>

        <symbol id="instagram" viewBox="0 0 448 512">
            <path d="M224.1 141c-63.6 0-114.9 51.3-114.9 114.9s51.3 114.9 114.9 114.9S339 319.5 339 255.9 287.7 141 224.1 141zm0 189.6c-41.1 0-74.7-33.5-74.7-74.7s33.5-74.7 74.7-74.7 74.7 33.5 74.7 74.7-33.6 74.7-74.7 74.7zm146.4-194.3c0 14.9-12 26.8-26.8 26.8-14.9 0-26.8-12-26.8-26.8s12-26.8 26.8-26.8 26.8 12 26.8 26.8zm76.1 27.2c-1.7-35.9-9.9-67.7-36.2-93.9-26.2-26.2-58-34.4-93.9-36.2-37-2.1-147.9-2.1-184.9 0-35.8 1.7-67.6 9.9-93.9 36.1s-34.4 58-36.2 93.9c-2.1 37-2.1 147.9 0 184.9 1.7 35.9 9.9 67.7 36.2 93.9s58 34.4 93.9 36.2c37 2.1 147.9 2.1 184.9 0 35.9-1.7 67.7-9.9 93.9-36.2 26.2-26.2 34.4-58 36.2-93.9 2.1-37 2.1-147.8 0-184.8zM398.8 388c-7.8 19.6-22.9 34.7-42.6 42.6-29.5 11.7-99.5 9-132.1 9s-102.7 2.6-132.1-9c-19.6-7.8-34.7-22.9-42.6-42.6-11.7-29.5-9-99.5-9-132.1s-2.6-102.7 9-132.1c7.8-19.6 22.9-34.7 42.6-42.6 29.5-11.7 99.5-9 132.1-9s102.7-2.6 132.1 9c19.6 7.8 34.7 22.9 42.6 42.6 11.7 29.5 9 99.5 9 132.1s2.7 102.7-9 132.1z"/>
        </symbol>

    </defs>

</svg>