<?xml version="1.0" encoding="utf-8"?>
<svg version="1.1" id="Layer_1" xmlns="http://www.w3.org/2000/svg" viewBox="0 0 24 24"
     style="enable-background:new 0 0 24 24;" xml:space="preserve">
    <path fill-rule="evenodd" d="M3.379,16.991c-0.13,0.117-0.28,0.176-0.449,0.176s-0.319-0.059-0.449-0.176c-0.117-0.13-0.176-0.28-0.176-0.449
		c0-0.169,0.059-0.319,0.176-0.449l8.75-8.75c0.13-0.117,0.28-0.176,0.449-0.176s0.319,0.059,0.449,0.176l8.75,8.75
		c0.117,0.13,0.176,0.28,0.176,0.449c0,0.169-0.059,0.319-0.176,0.449c-0.065,0.052-0.137,0.095-0.215,0.127
		c-0.078,0.033-0.156,0.049-0.234,0.049s-0.156-0.016-0.234-0.049c-0.078-0.032-0.149-0.075-0.215-0.127l-8.301-8.32L3.379,16.991z"
    />
</svg>
